M48
INCH
T1C00.012
T2C00.016
T3C00.031
T4C00.035
T5C00.037
T6C00.041
T7C00.051
T8C00.053
T9C00.057
T10C00.126
%
T001
X02721Y05449
X02721Y05489
X02721Y05567
X02721Y05646
X02721Y05725
X02760Y05371
X02760Y05567
X02760Y05764
X02800Y05331
X02800Y05449
X02800Y05686
X02800Y05764
X02839Y05449
X02839Y05489
X02839Y05567
X02839Y05686
X02839Y05804
X02878Y05331
X02878Y05410
X02878Y05528
X02878Y05607
X02878Y05725
X02878Y05804
X02918Y05410
X02918Y05489
X02918Y05725
X02957Y05331
X02957Y05607
X02957Y05646
X02957Y05686
X02957Y05804
X02997Y05410
X02997Y05449
X02997Y05489
X02997Y05646
X03036Y05331
X03036Y05410
X03036Y05528
X03036Y05607
X03036Y05646
X03036Y05686
X03075Y05449
X03075Y05607
X03075Y05804
X03115Y05292
X03115Y05449
X03115Y05686
X03115Y05804
X03154Y05371
X03154Y05764
X03193Y05371
X03193Y05449
X03193Y05607
X03193Y05686
X03233Y05292
X03233Y05646
T002
X01561Y02751
X01561Y02826
X01561Y02901
X01561Y04801
X01561Y04926
X01561Y05113
X01636Y04351
X01636Y04551
X01636Y04688
X01636Y04763
X01686Y04613
X01698Y05426
X01698Y05501
X01698Y06338
X01698Y06576
X01698Y06651
X01736Y05013
X01761Y04613
X01786Y01313
X01786Y01851
X01786Y01926
X01786Y05701
X01786Y06738
X01836Y01538
X01836Y02013
X01836Y04176
X01836Y05976
X01836Y06701
X01873Y05376
X01873Y05776
X01873Y05913
X01886Y01313
X01886Y01401
X01886Y01676
X01886Y02051
X01886Y03351
X01886Y07788
X01886Y07926
X01911Y03576
X01923Y05576
X01923Y06063
X01936Y07788
X01936Y08251
X01948Y01401
X01948Y05113
X01948Y05201
X01973Y03001
X01973Y03101
X01973Y04501
X01973Y05576
X01973Y06063
X01973Y06226
X01973Y06401
X01986Y01926
X01986Y02001
X01986Y02826
X01986Y07588
X01986Y08163
X01998Y04651
X02023Y03413
X02023Y04351
X02023Y05213
X02023Y05288
X02023Y05576
X02023Y06063
X02023Y06201
X02023Y06863
X02035Y04688
X02035Y04851
X02061Y06601
X02061Y06813
X02073Y03701
X02073Y03801
X02073Y05501
X02073Y05613
X02073Y05826
X02098Y01313
X02098Y04188
X02111Y04688
X02123Y02688
X02123Y05213
X02123Y05288
X02136Y05038
X02136Y05501
X02136Y07113
X02136Y07613
X02136Y07838
X02148Y04188
X02161Y06026
X02161Y06201
X02186Y07151
X02198Y04576
X02223Y04451
X02236Y01638
X02236Y07188
X02236Y07613
X02258Y04810
X02261Y03376
X02261Y03988
X02261Y04301
X02286Y01388
X02286Y01676
X02286Y03001
X02286Y03101
X02286Y03263
X02286Y04938
X02286Y06138
X02286Y06963
X02286Y07063
X02286Y07226
X02286Y07501
X02298Y04551
X02298Y04601
X02298Y04863
X02298Y05446
X02298Y05551
X02323Y04301
X02336Y03526
X02336Y08126
X02341Y05736
X02341Y05811
X02348Y04601
X02366Y04388
X02366Y04801
X02373Y03576
X02373Y04976
X02376Y02726
X02376Y02856
X02376Y02941
X02381Y03476
X02386Y01351
X02386Y05446
X02386Y05551
X02386Y05671
X02386Y05811
X02386Y05871
X02411Y03626
X02411Y04351
X02423Y04301
X02423Y06601
X02423Y06813
X02436Y07613
X02448Y04051
X02461Y01438
X02461Y01763
X02461Y03413
X02461Y04426
X02473Y06901
X02486Y01313
X02486Y06061
X02486Y06138
X02486Y06301
X02486Y07251
X02486Y07413
X02491Y05336
X02491Y05391
X02491Y05451
X02511Y04301
X02523Y04451
X02523Y04563
X02523Y06813
X02526Y05551
X02531Y04881
X02541Y05736
X02548Y04076
X02548Y04126
X02554Y05902
X02561Y06176
X02571Y05551
X02571Y05671
X02573Y03101
X02573Y03263
X02586Y01576
X02586Y04913
X02586Y07501
X02586Y07613
X02611Y04201
X02613Y06128
X02623Y05233
X02623Y05902
X02623Y05176
X02623Y06901
X02636Y01763
X02636Y04646
X02636Y04713
X02636Y07263
X02636Y07413
X02648Y04951
X02651Y04816
X02673Y03476
X02686Y01438
X02686Y07501
X02698Y03263
X02698Y06813
X02711Y04201
X02711Y04416
X02723Y04738
X02731Y04906
X02748Y03801
X02748Y03851
X02751Y01576
X02751Y04451
X02776Y04816
X02786Y01676
X02786Y06901
X02798Y03263
X02811Y01638
X02811Y04088
X02811Y04151
X02861Y03651
X02861Y03701
X02861Y03751
X02861Y03801
X02861Y03851
X02861Y04788
X02886Y04088
X02886Y04148
X02888Y05902
X02898Y03263
X02898Y03338
X02923Y07138
X02931Y04286
X02936Y03801
X02936Y03851
X02936Y04388
X02937Y05941
X02948Y05001
X02973Y04588
X02998Y03263
X03011Y07138
X03023Y04538
X03023Y06813
X03036Y03788
X03061Y03826
X03061Y04588
X03086Y01376
X03086Y07613
X03098Y03263
X03148Y03338
X03161Y07613
X03166Y04226
X03166Y04288
X03173Y04363
X03186Y04026
X03186Y04901
X03186Y06501
X03198Y03263
X03243Y05941
X03248Y03501
X03261Y01601
X03261Y04026
X03273Y04538
X03273Y04926
X03298Y03263
X03331Y05193
X03331Y05941
X03336Y04838
X03336Y04926
X03336Y05001
X03348Y03338
X03361Y04586
X03373Y05901
X03386Y03901
X03386Y03963
X03386Y04026
X03386Y05263
X03386Y05313
X03386Y05363
X03386Y05413
X03386Y05463
X03398Y03263
X03398Y03551
X03398Y03613
X03436Y04876
X03461Y06313
X03461Y06626
X03498Y03263
X03511Y06451
X03536Y07551
X03536Y07751
X03586Y04538
X03598Y03263
X03611Y07251
X03636Y04488
X03636Y04688
X03648Y03963
X03648Y04026
X03648Y06626
X03648Y07151
X03673Y04651
X03686Y05276
X03686Y07301
X03686Y07976
X03698Y03263
X03698Y03338
X03698Y03651
X03698Y03701
X03698Y03751
X03698Y04126
X03698Y04201
X03698Y04276
X03711Y03963
X03711Y04026
X03723Y07051
X03723Y07901
X03761Y05276
X03761Y06951
X03773Y03863
X03798Y03063
X03798Y03263
X03798Y06588
X03798Y06788
X03798Y07126
X03798Y07201
X03798Y07763
X03798Y07838
X03798Y08138
X03811Y02701
X03861Y04463
X03861Y06451
X03886Y01126
X03886Y01426
X03886Y02626
X03886Y02701
X03886Y02776
X03886Y03538
X03886Y03601
X03898Y04426
X03898Y07551
X03911Y08138
X03936Y01188
X03948Y04351
X03961Y01526
X03973Y03263
X03998Y03963
X04011Y05976
X04036Y01788
X04048Y01538
X04061Y07366
X04061Y07441
X04061Y08015
X04061Y08091
X04073Y03263
X04073Y03338
X04073Y03826
X04085Y05913
X04085Y05976
X04111Y03963
X04111Y06926
X04111Y07538
X04111Y08163
X04123Y03501
X04161Y05913
X04161Y06976
X04161Y07126
X04161Y07526
X04161Y08163
X04173Y03263
X04198Y03601
X04211Y03338
X04211Y06638
X04211Y06713
X04223Y01201
X04236Y05276
X04236Y05913
X04261Y01263
X04261Y01338
X04261Y07351
X04261Y07838
X04261Y07976
X04273Y03263
X04273Y03601
X04298Y01638
X04311Y01951
X04311Y05201
X04323Y06801
X04323Y06876
X04336Y01388
X04348Y01488
X04373Y03263
X04473Y03263
X04473Y07013
X04473Y07088
X04473Y07851
X04473Y07926
X04511Y05851
X04536Y03651
X04536Y03701
X04536Y03751
X04573Y01001
X04573Y01101
X04573Y03263
X04573Y03338
X04586Y02101
X04586Y02201
X04586Y05851
X04661Y01738
X04661Y01813
X04661Y05851
X04673Y03263
X04736Y03601
X04773Y03263
X04873Y03263
X04873Y03338
X04923Y03501
X04923Y03651
X04923Y03776
X04973Y03263
X04986Y03776
X05023Y01901
X05023Y02326
X05023Y03338
X05061Y00951
X05061Y02413
X05061Y05238
X05073Y03263
X05136Y02213
X05173Y02238
X05186Y03088
X05186Y03188
X05186Y03263
X05186Y03338
X05248Y03788
T003
X01786Y01101
X01836Y04926
X01886Y01101
X01886Y04338
X01886Y04538
X01936Y04926
X01986Y01101
X02086Y01101
X02186Y01101
X02236Y07926
X02286Y01101
X02336Y07926
X02386Y01101
X02486Y01101
X02536Y07926
X02586Y01101
X02636Y07926
X02686Y02201
X02786Y01101
X02786Y02201
X02811Y04488
X02886Y01101
X02886Y02201
X02986Y01101
X02986Y02201
X02986Y07301
X02986Y07401
X02986Y07701
X02986Y07801
X03086Y01101
X03086Y02201
X03186Y01101
X03186Y02201
X03186Y06901
X03186Y07001
X03211Y04488
X03236Y07301
X03236Y07401
X03236Y07701
X03236Y07801
X03286Y01101
X03286Y02201
X03361Y04488
X03386Y01101
X03386Y02201
X03436Y06901
X03436Y07001
X03461Y04488
X03486Y01101
X03486Y02201
X03536Y05801
X03536Y05901
X03586Y01101
X03686Y02201
X03686Y06901
X03686Y07001
X03786Y02201
X03886Y02201
X03886Y05201
X03886Y05301
X03886Y05401
X03886Y05501
X03886Y05601
X03886Y05701
X03886Y05801
X03886Y05901
X03886Y06001
X03936Y06901
X03936Y07001
X03986Y02201
X04085Y02201
X04186Y02201
X04286Y02201
X04386Y02201
X04386Y03901
X04386Y04201
X04461Y00801
X04461Y00901
X04461Y01001
X04461Y01101
X04461Y01201
X04461Y01301
X04461Y01401
X04461Y01501
X04461Y01601
X04486Y02201
X04486Y03901
X04486Y04201
X04586Y03901
X04586Y04201
X04686Y03901
X04686Y04201
X05211Y02801
X05311Y02801
T004
X01836Y07201
X01936Y07201
X02636Y03951
X02636Y04051
X02886Y08101
X02886Y08201
X02986Y08101
X02986Y08201
X03486Y03601
X03586Y03601
X03836Y04201
X03836Y07401
X03836Y07501
X03836Y07601
X03936Y04201
X04836Y06601
X04936Y06601
T005
X01711Y03051
X01711Y03151
X01711Y03251
X01711Y03351
X01711Y03701
X01711Y03801
X01711Y03901
X01711Y04000
X01711Y04101
X01811Y03051
X01811Y03151
X01811Y03251
X01811Y03351
X01811Y03451
X01811Y03551
X01811Y03701
X01811Y03801
X01811Y03901
X01811Y04000
X01811Y04101
X02186Y00801
X02186Y00901
X02186Y02401
X02186Y02501
X02286Y00801
X02286Y00901
X02286Y02401
X02286Y02501
X02361Y06451
X02386Y00801
X02386Y00901
X02386Y02401
X02386Y02501
X02461Y06451
X02486Y00801
X02486Y00901
X02486Y02401
X02486Y02501
X02561Y06451
X02586Y00801
X02586Y00901
X02586Y02401
X02586Y02501
X02661Y06451
X02761Y06451
X02861Y06451
X02986Y00801
X02986Y00901
X02986Y01901
X02986Y02001
X02986Y02401
X02986Y02501
X03086Y00801
X03086Y00901
X03086Y01901
X03086Y02001
X03086Y02401
X03086Y02501
X03136Y06351
X03136Y06451
X03186Y00801
X03186Y00901
X03186Y01901
X03186Y02001
X03186Y02401
X03186Y02501
X03236Y06351
X03236Y06451
X03286Y00801
X03286Y00901
X03286Y01901
X03286Y02001
X03286Y02401
X03286Y02501
X03336Y06351
X03336Y06451
X03386Y00801
X03386Y00901
X03386Y01901
X03386Y02001
X03386Y02401
X03386Y02501
X03486Y02401
X03486Y02501
X03586Y02401
X03586Y02501
X03686Y02401
X03686Y02501
X03786Y00801
X03786Y00901
X03786Y01901
X03786Y02001
X03886Y00801
X03886Y00901
X03886Y01901
X03886Y02001
X03886Y05038
X03986Y00801
X03986Y00901
X03986Y01901
X03986Y02001
X04085Y00801
X04085Y00901
X04085Y01901
X04085Y02001
X04085Y02401
X04085Y02501
X04186Y00801
X04186Y00901
X04186Y01901
X04186Y02001
X04186Y02401
X04186Y02501
X04286Y02401
X04286Y02501
X04386Y02401
X04386Y02501
X04486Y02401
X04486Y02501
X04486Y04501
X04486Y04601
X04486Y04701
X04486Y04801
X04486Y04901
X04486Y05301
X04486Y05401
X04486Y05501
X04486Y05601
X04486Y05701
X04486Y06101
X04486Y06201
X04486Y06301
X04486Y06401
X04486Y06501
X04586Y02401
X04586Y02501
X04586Y04501
X04586Y04601
X04586Y04701
X04586Y04801
X04586Y04901
X04586Y05301
X04586Y05401
X04586Y05501
X04586Y05601
X04586Y05701
X04586Y06101
X04586Y06201
X04586Y06301
X04586Y06401
X04586Y06501
X04686Y02401
X04686Y02501
X04786Y02401
X04786Y02501
X04836Y00851
X04836Y00951
X04836Y01051
X04836Y01701
X04836Y01801
X04836Y01901
X04836Y04651
X04836Y04751
X04836Y04851
X04836Y05426
X04836Y05526
X04836Y05626
X04836Y05938
X04836Y06901
X04836Y07001
X04836Y07101
X04836Y07751
X04836Y07851
X04836Y07951
X05236Y05938
T006
X03448Y07976
X03448Y08038
X03448Y08176
X05311Y02351
X05311Y02451
X05311Y02551
T007
X01761Y02326
X01761Y02526
X03686Y05038
X04286Y05038
T008
X04836Y04551
X04836Y04951
X04836Y05326
X04836Y05726
X04936Y04451
X04936Y04751
X04936Y05051
X04936Y05226
X04936Y05526
X04936Y05826
X05236Y04651
X05236Y04851
X05236Y05426
X05236Y05626
X05336Y04551
X05336Y04651
X05336Y04851
X05336Y04951
X05336Y05326
X05336Y05426
X05336Y05626
X05336Y05726
T009
X04773Y00663
X04773Y01301
X04773Y01501
X04773Y02138
X04773Y06763
X04773Y07401
X04773Y07601
X04773Y08238
X04836Y06301
X04986Y06301
X05023Y00663
X05023Y01301
X05023Y01501
X05023Y02138
X05023Y06763
X05023Y07401
X05023Y07601
X05023Y08238
X05236Y06101
X05236Y06501
X05273Y00663
X05273Y01301
X05273Y01501
X05273Y02138
X05273Y06763
X05273Y07401
X05273Y07601
X05273Y08238
T010
X01686Y00726
X01686Y08176
X05251Y00981
X05251Y07921
M30
