G04 EAGLE Gerber RS-274X export*
G75*
%MOMM*%
%FSLAX34Y34*%
%LPD*%
%AMOC8*
5,1,8,0,0,1.08239X$1,22.5*%
G01*
%ADD10R,1.300000X1.500000*%
%ADD11C,2.540000*%
%ADD12P,2.749271X8X292.500000*%
%ADD13P,2.749271X8X22.500000*%
%ADD14R,1.500000X1.300000*%
%ADD15C,2.216000*%
%ADD16C,1.916000*%
%ADD17R,1.500000X1.200000*%
%ADD18R,1.000000X1.400000*%
%ADD19C,0.406400*%
%ADD20C,2.000000*%


D10*
X-295300Y328930D03*
X-314300Y328930D03*
X-273660Y328930D03*
X-254660Y328930D03*
D11*
X-170180Y454660D03*
D12*
X-170180Y403860D03*
D11*
X-110490Y372110D03*
D13*
X-59690Y372110D03*
D14*
X-209550Y84480D03*
X-209550Y103480D03*
X-160020Y84480D03*
X-160020Y103480D03*
X-313690Y84480D03*
X-313690Y103480D03*
X-262890Y84480D03*
X-262890Y103480D03*
D15*
X-33500Y103220D02*
X-33500Y125380D01*
X-83900Y125380D02*
X-83900Y103220D01*
X-236700Y103220D02*
X-236700Y125380D01*
X-287100Y125380D02*
X-287100Y103220D01*
X-135100Y103220D02*
X-135100Y125380D01*
X-185500Y125380D02*
X-185500Y103220D01*
D16*
X-60980Y237490D03*
X-126980Y237490D03*
D17*
X-313690Y142875D03*
X-313690Y123825D03*
X-262890Y142875D03*
X-262890Y123825D03*
X-160020Y142875D03*
X-160020Y123825D03*
X-209550Y142875D03*
X-209550Y123825D03*
D14*
X-314960Y287680D03*
X-314960Y306680D03*
X-254000Y287680D03*
X-254000Y306680D03*
D16*
X-309880Y347980D03*
X-284480Y347980D03*
X-259080Y347980D03*
X-182880Y347980D03*
X-157480Y347980D03*
X-157480Y170180D03*
X-182880Y170180D03*
X-309880Y170180D03*
X-284480Y170180D03*
D11*
X-273050Y454660D03*
D12*
X-273050Y403860D03*
D16*
X-342900Y393700D03*
X-342900Y368300D03*
X-342900Y342900D03*
X-342900Y317500D03*
X-342900Y292100D03*
X-342900Y266700D03*
X-342900Y241300D03*
X-342900Y215900D03*
X-342900Y190500D03*
X-342900Y165100D03*
X-342900Y139700D03*
X-342900Y114300D03*
X-342900Y88900D03*
D14*
X-17780Y149250D03*
X-17780Y168250D03*
D18*
X-50800Y147750D03*
X-60300Y169750D03*
X-41300Y169750D03*
D19*
X-309880Y347980D02*
X-314300Y343560D01*
X-314300Y328930D01*
X-314960Y306680D01*
X-259080Y347980D02*
X-254660Y343560D01*
X-254660Y328930D01*
X-254000Y306680D01*
D20*
X-182880Y347980D02*
X-182880Y363220D01*
X-173990Y372110D02*
X-110490Y372110D01*
X-173990Y372110D02*
X-182880Y363220D01*
X-126980Y317520D02*
X-126980Y237490D01*
X-110490Y334010D02*
X-110490Y372110D01*
X-110490Y334010D02*
X-126980Y317520D01*
D19*
X-209550Y114300D02*
X-209550Y103480D01*
X-209550Y114300D02*
X-209550Y123825D01*
X-209550Y114300D02*
X-205740Y114300D01*
X-185500Y114300D01*
X-160020Y114300D02*
X-160020Y103480D01*
X-160020Y114300D02*
X-160020Y123825D01*
X-160020Y114300D02*
X-135100Y114300D01*
X-313690Y114300D02*
X-313690Y103480D01*
X-313690Y114300D02*
X-313690Y123825D01*
X-313690Y114300D02*
X-287100Y114300D01*
X-262890Y114300D02*
X-262890Y103480D01*
X-262890Y114300D02*
X-262890Y123825D01*
X-262890Y114300D02*
X-236700Y114300D01*
D20*
X-50800Y131600D02*
X-33500Y114300D01*
X-50800Y131600D02*
X-50800Y147750D01*
D19*
X-39800Y168250D02*
X-17780Y168250D01*
X-39800Y168250D02*
X-41300Y169750D01*
D20*
X-281940Y454660D02*
X-342900Y393700D01*
X-273050Y454660D02*
X-170180Y454660D01*
X-273050Y454660D02*
X-281940Y454660D01*
X-170180Y454660D02*
X-141430Y425910D01*
X-34940Y382362D02*
X-34940Y361858D01*
X-78488Y425910D02*
X-141430Y425910D01*
X-78488Y425910D02*
X-34940Y382362D01*
D19*
X-60960Y170410D02*
X-60300Y169750D01*
X-60300Y179680D01*
X-60960Y180340D01*
D20*
X-60960Y237470D01*
X-60980Y237490D01*
X-60980Y335818D01*
X-34940Y361858D01*
D19*
X-209550Y143510D02*
X-209550Y142875D01*
D20*
X-209550Y143510D02*
X-182880Y170180D01*
D19*
X-157798Y145098D02*
X-160020Y142875D01*
D20*
X-157798Y145098D02*
X-157480Y170180D01*
D19*
X-262890Y144780D02*
X-262890Y142875D01*
D20*
X-262890Y144780D02*
X-284480Y170180D01*
X-309880Y170180D02*
X-313690Y142875D01*
D19*
X-209550Y84480D02*
X-160020Y84480D01*
X-295300Y328930D02*
X-295300Y337160D01*
X-284480Y347980D01*
X-295300Y328930D02*
X-273660Y328930D01*
X-262890Y84480D02*
X-209550Y84480D01*
X-262890Y84480D02*
X-313690Y84480D01*
X-284480Y347980D02*
X-284480Y360680D01*
X-278130Y367030D01*
X-160020Y84480D02*
X-127000Y84480D01*
X-82550Y84480D02*
X-82550Y112950D01*
X-82550Y84480D02*
X-127000Y84480D01*
X-175260Y330200D02*
X-157480Y347980D01*
X-175260Y330200D02*
X-203200Y330200D01*
X-241300Y368300D01*
X-276860Y368300D01*
X-278130Y367030D01*
X-82550Y84480D02*
X-29820Y84480D01*
X-17780Y96520D01*
X-82550Y112950D02*
X-83900Y114300D01*
D20*
X-170180Y403860D02*
X-273050Y403860D01*
X-339550Y371650D02*
X-342900Y368300D01*
X-339550Y371650D02*
X-333767Y371650D01*
X-301557Y403860D01*
X-273050Y403860D01*
D19*
X-273050Y400050D01*
D20*
X-170180Y403860D02*
X-91440Y403860D01*
X-59690Y372110D01*
X-83900Y347900D02*
X-83900Y114300D01*
X-83900Y347900D02*
X-59690Y372110D01*
X-127000Y157400D02*
X-83900Y114300D01*
X-127000Y157400D02*
X-127000Y190500D01*
X-157480Y220980D01*
X-157480Y347980D01*
D19*
X-17780Y149250D02*
X-17780Y96520D01*
X-314960Y287680D02*
X-317500Y285140D01*
X-317500Y241300D01*
X-342900Y241300D01*
X-254000Y228600D02*
X-254000Y287680D01*
X-254000Y228600D02*
X-266700Y215900D01*
X-342900Y215900D01*
M02*
