G04 EAGLE Gerber RS-274X export*
G75*
%MOMM*%
%FSLAX34Y34*%
%LPD*%
%AMOC8*
5,1,8,0,0,1.08239X$1,22.5*%
G01*
%ADD10C,0.254000*%


D10*
X0Y0D02*
X-390400Y0D01*
X-390400Y482500D01*
X0Y482500D01*
X0Y0D01*
X-54791Y28622D02*
X-54791Y29798D01*
X-54714Y30971D01*
X-54560Y32137D01*
X-54331Y33291D01*
X-54026Y34426D01*
X-53648Y35540D01*
X-53198Y36626D01*
X-52678Y37681D01*
X-52090Y38699D01*
X-51437Y39677D01*
X-50721Y40610D01*
X-49946Y41494D01*
X-49114Y42326D01*
X-48230Y43101D01*
X-47297Y43817D01*
X-46319Y44470D01*
X-45301Y45058D01*
X-44246Y45578D01*
X-43160Y46028D01*
X-42046Y46406D01*
X-40911Y46711D01*
X-39757Y46940D01*
X-38591Y47094D01*
X-37418Y47171D01*
X-36242Y47171D01*
X-35069Y47094D01*
X-33903Y46940D01*
X-32749Y46711D01*
X-31614Y46406D01*
X-30500Y46028D01*
X-29414Y45578D01*
X-28359Y45058D01*
X-27341Y44470D01*
X-26363Y43817D01*
X-25430Y43101D01*
X-24546Y42326D01*
X-23714Y41494D01*
X-22939Y40610D01*
X-22223Y39677D01*
X-21570Y38699D01*
X-20982Y37681D01*
X-20462Y36626D01*
X-20012Y35540D01*
X-19634Y34426D01*
X-19329Y33291D01*
X-19100Y32137D01*
X-18946Y30971D01*
X-18870Y29798D01*
X-18870Y28622D01*
X-18946Y27449D01*
X-19100Y26283D01*
X-19329Y25129D01*
X-19634Y23994D01*
X-20012Y22880D01*
X-20462Y21794D01*
X-20982Y20739D01*
X-21570Y19721D01*
X-22223Y18743D01*
X-22939Y17810D01*
X-23714Y16926D01*
X-24546Y16094D01*
X-25430Y15319D01*
X-26363Y14603D01*
X-27341Y13950D01*
X-28359Y13362D01*
X-29414Y12842D01*
X-30500Y12392D01*
X-31614Y12014D01*
X-32749Y11709D01*
X-33903Y11480D01*
X-35069Y11326D01*
X-36242Y11250D01*
X-37418Y11250D01*
X-38591Y11326D01*
X-39757Y11480D01*
X-40911Y11709D01*
X-42046Y12014D01*
X-43160Y12392D01*
X-44246Y12842D01*
X-45301Y13362D01*
X-46319Y13950D01*
X-47297Y14603D01*
X-48230Y15319D01*
X-49114Y16094D01*
X-49946Y16926D01*
X-50721Y17810D01*
X-51437Y18743D01*
X-52090Y19721D01*
X-52678Y20739D01*
X-53198Y21794D01*
X-53648Y22880D01*
X-54026Y23994D01*
X-54331Y25129D01*
X-54560Y26283D01*
X-54714Y27449D01*
X-54791Y28622D01*
X-54791Y447722D02*
X-54791Y448898D01*
X-54714Y450071D01*
X-54560Y451237D01*
X-54331Y452391D01*
X-54026Y453526D01*
X-53648Y454640D01*
X-53198Y455726D01*
X-52678Y456781D01*
X-52090Y457799D01*
X-51437Y458777D01*
X-50721Y459710D01*
X-49946Y460594D01*
X-49114Y461426D01*
X-48230Y462201D01*
X-47297Y462917D01*
X-46319Y463570D01*
X-45301Y464158D01*
X-44246Y464678D01*
X-43160Y465128D01*
X-42046Y465506D01*
X-40911Y465811D01*
X-39757Y466040D01*
X-38591Y466194D01*
X-37418Y466271D01*
X-36242Y466271D01*
X-35069Y466194D01*
X-33903Y466040D01*
X-32749Y465811D01*
X-31614Y465506D01*
X-30500Y465128D01*
X-29414Y464678D01*
X-28359Y464158D01*
X-27341Y463570D01*
X-26363Y462917D01*
X-25430Y462201D01*
X-24546Y461426D01*
X-23714Y460594D01*
X-22939Y459710D01*
X-22223Y458777D01*
X-21570Y457799D01*
X-20982Y456781D01*
X-20462Y455726D01*
X-20012Y454640D01*
X-19634Y453526D01*
X-19329Y452391D01*
X-19100Y451237D01*
X-18946Y450071D01*
X-18870Y448898D01*
X-18870Y447722D01*
X-18946Y446549D01*
X-19100Y445383D01*
X-19329Y444229D01*
X-19634Y443094D01*
X-20012Y441980D01*
X-20462Y440894D01*
X-20982Y439839D01*
X-21570Y438821D01*
X-22223Y437843D01*
X-22939Y436910D01*
X-23714Y436026D01*
X-24546Y435194D01*
X-25430Y434419D01*
X-26363Y433703D01*
X-27341Y433050D01*
X-28359Y432462D01*
X-29414Y431942D01*
X-30500Y431492D01*
X-31614Y431114D01*
X-32749Y430809D01*
X-33903Y430580D01*
X-35069Y430426D01*
X-36242Y430350D01*
X-37418Y430350D01*
X-38591Y430426D01*
X-39757Y430580D01*
X-40911Y430809D01*
X-42046Y431114D01*
X-43160Y431492D01*
X-44246Y431942D01*
X-45301Y432462D01*
X-46319Y433050D01*
X-47297Y433703D01*
X-48230Y434419D01*
X-49114Y435194D01*
X-49946Y436026D01*
X-50721Y436910D01*
X-51437Y437843D01*
X-52090Y438821D01*
X-52678Y439839D01*
X-53198Y440894D01*
X-53648Y441980D01*
X-54026Y443094D01*
X-54331Y444229D01*
X-54560Y445383D01*
X-54714Y446549D01*
X-54791Y447722D01*
X-376101Y28622D02*
X-376101Y29798D01*
X-376024Y30971D01*
X-375870Y32137D01*
X-375641Y33291D01*
X-375336Y34426D01*
X-374958Y35540D01*
X-374508Y36626D01*
X-373988Y37681D01*
X-373400Y38699D01*
X-372747Y39677D01*
X-372031Y40610D01*
X-371256Y41494D01*
X-370424Y42326D01*
X-369540Y43101D01*
X-368607Y43817D01*
X-367629Y44470D01*
X-366611Y45058D01*
X-365556Y45578D01*
X-364470Y46028D01*
X-363356Y46406D01*
X-362221Y46711D01*
X-361067Y46940D01*
X-359901Y47094D01*
X-358728Y47171D01*
X-357552Y47171D01*
X-356379Y47094D01*
X-355213Y46940D01*
X-354059Y46711D01*
X-352924Y46406D01*
X-351810Y46028D01*
X-350724Y45578D01*
X-349669Y45058D01*
X-348651Y44470D01*
X-347673Y43817D01*
X-346740Y43101D01*
X-345856Y42326D01*
X-345024Y41494D01*
X-344249Y40610D01*
X-343533Y39677D01*
X-342880Y38699D01*
X-342292Y37681D01*
X-341772Y36626D01*
X-341322Y35540D01*
X-340944Y34426D01*
X-340639Y33291D01*
X-340410Y32137D01*
X-340256Y30971D01*
X-340180Y29798D01*
X-340180Y28622D01*
X-340256Y27449D01*
X-340410Y26283D01*
X-340639Y25129D01*
X-340944Y23994D01*
X-341322Y22880D01*
X-341772Y21794D01*
X-342292Y20739D01*
X-342880Y19721D01*
X-343533Y18743D01*
X-344249Y17810D01*
X-345024Y16926D01*
X-345856Y16094D01*
X-346740Y15319D01*
X-347673Y14603D01*
X-348651Y13950D01*
X-349669Y13362D01*
X-350724Y12842D01*
X-351810Y12392D01*
X-352924Y12014D01*
X-354059Y11709D01*
X-355213Y11480D01*
X-356379Y11326D01*
X-357552Y11250D01*
X-358728Y11250D01*
X-359901Y11326D01*
X-361067Y11480D01*
X-362221Y11709D01*
X-363356Y12014D01*
X-364470Y12392D01*
X-365556Y12842D01*
X-366611Y13362D01*
X-367629Y13950D01*
X-368607Y14603D01*
X-369540Y15319D01*
X-370424Y16094D01*
X-371256Y16926D01*
X-372031Y17810D01*
X-372747Y18743D01*
X-373400Y19721D01*
X-373988Y20739D01*
X-374508Y21794D01*
X-374958Y22880D01*
X-375336Y23994D01*
X-375641Y25129D01*
X-375870Y26283D01*
X-376024Y27449D01*
X-376101Y28622D01*
X-374831Y448992D02*
X-374831Y450168D01*
X-374754Y451341D01*
X-374600Y452507D01*
X-374371Y453661D01*
X-374066Y454796D01*
X-373688Y455910D01*
X-373238Y456996D01*
X-372718Y458051D01*
X-372130Y459069D01*
X-371477Y460047D01*
X-370761Y460980D01*
X-369986Y461864D01*
X-369154Y462696D01*
X-368270Y463471D01*
X-367337Y464187D01*
X-366359Y464840D01*
X-365341Y465428D01*
X-364286Y465948D01*
X-363200Y466398D01*
X-362086Y466776D01*
X-360951Y467081D01*
X-359797Y467310D01*
X-358631Y467464D01*
X-357458Y467541D01*
X-356282Y467541D01*
X-355109Y467464D01*
X-353943Y467310D01*
X-352789Y467081D01*
X-351654Y466776D01*
X-350540Y466398D01*
X-349454Y465948D01*
X-348399Y465428D01*
X-347381Y464840D01*
X-346403Y464187D01*
X-345470Y463471D01*
X-344586Y462696D01*
X-343754Y461864D01*
X-342979Y460980D01*
X-342263Y460047D01*
X-341610Y459069D01*
X-341022Y458051D01*
X-340502Y456996D01*
X-340052Y455910D01*
X-339674Y454796D01*
X-339369Y453661D01*
X-339140Y452507D01*
X-338986Y451341D01*
X-338910Y450168D01*
X-338910Y448992D01*
X-338986Y447819D01*
X-339140Y446653D01*
X-339369Y445499D01*
X-339674Y444364D01*
X-340052Y443250D01*
X-340502Y442164D01*
X-341022Y441109D01*
X-341610Y440091D01*
X-342263Y439113D01*
X-342979Y438180D01*
X-343754Y437296D01*
X-344586Y436464D01*
X-345470Y435689D01*
X-346403Y434973D01*
X-347381Y434320D01*
X-348399Y433732D01*
X-349454Y433212D01*
X-350540Y432762D01*
X-351654Y432384D01*
X-352789Y432079D01*
X-353943Y431850D01*
X-355109Y431696D01*
X-356282Y431620D01*
X-357458Y431620D01*
X-358631Y431696D01*
X-359797Y431850D01*
X-360951Y432079D01*
X-362086Y432384D01*
X-363200Y432762D01*
X-364286Y433212D01*
X-365341Y433732D01*
X-366359Y434320D01*
X-367337Y434973D01*
X-368270Y435689D01*
X-369154Y436464D01*
X-369986Y437296D01*
X-370761Y438180D01*
X-371477Y439113D01*
X-372130Y440091D01*
X-372718Y441109D01*
X-373238Y442164D01*
X-373688Y443250D01*
X-374066Y444364D01*
X-374371Y445499D01*
X-374600Y446653D01*
X-374754Y447819D01*
X-374831Y448992D01*
M02*
