M48
;GenerationSoftware,Autodesk,EAGLE,9.1.0*%
;CreationDate,2018-08-17T21:02:39Z*%
FMAT,2
ICI,OFF
METRIC,TZ,0000.000
T3C0.900
T2C1.016
T1C1.200
%
G90
M71
T1
X-3350Y11430
X-8390Y11430
X-23670Y11430
X-28710Y11430
X-13510Y11430
X-18550Y11430
T2
X-17018Y45466
X-17018Y40386
X-11049Y37211
X-5969Y37211
X-27305Y45466
X-27305Y40386
T3
X-30988Y34798
X-28448Y34798
X-25908Y34798
X-18288Y34798
X-15748Y34798
X-15748Y17018
X-18288Y17018
X-30988Y17018
X-28448Y17018
X-6098Y23749
X-12698Y23749
X-34290Y39370
X-34290Y36830
X-34290Y34290
X-34290Y31750
X-34290Y29210
X-34290Y26670
X-34290Y24130
X-34290Y21590
X-34290Y19050
X-34290Y16510
X-34290Y13970
X-34290Y11430
X-34290Y8890
M30