G04 EAGLE Gerber RS-274X export*
G75*
%MOMM*%
%FSLAX34Y34*%
%LPD*%
%AMOC8*
5,1,8,0,0,1.08239X$1,22.5*%
G01*
%ADD10R,15.875000X16.002000*%
%ADD11R,1.500000X1.300000*%
%ADD12R,1.300000X1.500000*%
%ADD13R,1.800000X1.400000*%
%ADD14R,0.660400X2.032000*%
%ADD15R,1.778000X1.270000*%
%ADD16R,1.550000X1.780000*%
%ADD17R,2.000000X2.000000*%
%ADD18R,1.800000X1.800000*%
%ADD19C,0.406400*%
%ADD20C,0.812800*%
%ADD21C,1.500000*%
%ADD22C,5.500000*%

G36*
X421279Y2035D02*
X421279Y2035D01*
X421297Y2033D01*
X421479Y2054D01*
X421662Y2073D01*
X421679Y2078D01*
X421696Y2080D01*
X421871Y2137D01*
X422047Y2191D01*
X422062Y2199D01*
X422079Y2205D01*
X422239Y2295D01*
X422401Y2383D01*
X422414Y2394D01*
X422430Y2403D01*
X422569Y2523D01*
X422710Y2640D01*
X422721Y2654D01*
X422735Y2666D01*
X422847Y2811D01*
X422962Y2954D01*
X422970Y2970D01*
X422981Y2984D01*
X423063Y3149D01*
X423148Y3311D01*
X423153Y3328D01*
X423161Y3344D01*
X423208Y3523D01*
X423259Y3698D01*
X423261Y3716D01*
X423265Y3733D01*
X423292Y4064D01*
X423292Y300636D01*
X423291Y300649D01*
X423292Y300662D01*
X423291Y300666D01*
X423292Y300672D01*
X423271Y300854D01*
X423252Y301037D01*
X423247Y301054D01*
X423245Y301071D01*
X423188Y301246D01*
X423134Y301422D01*
X423126Y301437D01*
X423120Y301454D01*
X423030Y301614D01*
X422942Y301776D01*
X422931Y301789D01*
X422922Y301805D01*
X422802Y301944D01*
X422685Y302085D01*
X422671Y302096D01*
X422659Y302110D01*
X422514Y302222D01*
X422371Y302337D01*
X422355Y302345D01*
X422341Y302356D01*
X422176Y302438D01*
X422014Y302523D01*
X421997Y302528D01*
X421981Y302536D01*
X421802Y302583D01*
X421627Y302634D01*
X421609Y302636D01*
X421592Y302640D01*
X421261Y302667D01*
X219437Y302667D01*
X219364Y302660D01*
X219290Y302662D01*
X219164Y302640D01*
X219036Y302627D01*
X218966Y302606D01*
X218894Y302593D01*
X218774Y302547D01*
X218651Y302509D01*
X218587Y302474D01*
X218518Y302448D01*
X218410Y302379D01*
X218297Y302317D01*
X218241Y302271D01*
X218179Y302231D01*
X218086Y302142D01*
X217988Y302060D01*
X217942Y302003D01*
X217889Y301952D01*
X217816Y301846D01*
X217735Y301746D01*
X217702Y301681D01*
X217660Y301621D01*
X217609Y301503D01*
X217550Y301389D01*
X217530Y301318D01*
X217501Y301251D01*
X217474Y301125D01*
X217438Y301002D01*
X217432Y300929D01*
X217417Y300857D01*
X217416Y300729D01*
X217406Y300600D01*
X217414Y300528D01*
X217413Y300454D01*
X217438Y300328D01*
X217453Y300201D01*
X217475Y300131D01*
X217489Y300059D01*
X217538Y299940D01*
X217577Y299818D01*
X217613Y299754D01*
X217641Y299686D01*
X217712Y299579D01*
X217775Y299467D01*
X217823Y299412D01*
X217864Y299351D01*
X217954Y299260D01*
X218038Y299163D01*
X218096Y299118D01*
X218148Y299066D01*
X218288Y298969D01*
X218357Y298916D01*
X218368Y298910D01*
X218373Y298906D01*
X218393Y298896D01*
X218421Y298877D01*
X219406Y298308D01*
X225283Y292431D01*
X229439Y285233D01*
X231590Y277206D01*
X231590Y268894D01*
X229439Y260867D01*
X225283Y253669D01*
X219406Y247792D01*
X214340Y244867D01*
X214221Y244781D01*
X214098Y244703D01*
X214058Y244664D01*
X214013Y244632D01*
X213913Y244525D01*
X213808Y244423D01*
X213776Y244378D01*
X213739Y244337D01*
X213662Y244212D01*
X213579Y244092D01*
X213557Y244041D01*
X213528Y243994D01*
X213477Y243857D01*
X213419Y243723D01*
X213408Y243668D01*
X213389Y243616D01*
X213367Y243472D01*
X213336Y243329D01*
X213336Y243273D01*
X213327Y243218D01*
X213334Y243072D01*
X213332Y242926D01*
X213343Y242872D01*
X213345Y242816D01*
X213381Y242674D01*
X213408Y242531D01*
X213429Y242479D01*
X213442Y242425D01*
X213505Y242293D01*
X213560Y242158D01*
X213591Y242112D01*
X213614Y242061D01*
X213702Y241944D01*
X213783Y241822D01*
X213822Y241783D01*
X213855Y241739D01*
X213964Y241641D01*
X214067Y241537D01*
X214119Y241501D01*
X214154Y241470D01*
X214227Y241427D01*
X214340Y241349D01*
X214410Y241308D01*
X214883Y240835D01*
X215218Y240256D01*
X215391Y239610D01*
X215391Y235024D01*
X207568Y235024D01*
X207550Y235022D01*
X207533Y235024D01*
X207350Y235003D01*
X207168Y234984D01*
X207151Y234979D01*
X207133Y234977D01*
X206958Y234920D01*
X206783Y234866D01*
X206767Y234858D01*
X206750Y234852D01*
X206590Y234762D01*
X206429Y234674D01*
X206415Y234663D01*
X206399Y234654D01*
X206260Y234534D01*
X206119Y234417D01*
X206108Y234403D01*
X206095Y234391D01*
X205982Y234246D01*
X205867Y234103D01*
X205859Y234087D01*
X205848Y234073D01*
X205766Y233908D01*
X205682Y233746D01*
X205677Y233729D01*
X205669Y233713D01*
X205621Y233534D01*
X205570Y233359D01*
X205569Y233341D01*
X205564Y233324D01*
X205537Y232993D01*
X205537Y230557D01*
X205539Y230539D01*
X205537Y230521D01*
X205559Y230339D01*
X205577Y230156D01*
X205582Y230139D01*
X205584Y230122D01*
X205641Y229947D01*
X205695Y229771D01*
X205703Y229756D01*
X205709Y229739D01*
X205799Y229579D01*
X205887Y229417D01*
X205898Y229404D01*
X205907Y229388D01*
X206027Y229249D01*
X206145Y229108D01*
X206158Y229097D01*
X206170Y229083D01*
X206315Y228971D01*
X206458Y228856D01*
X206474Y228848D01*
X206488Y228837D01*
X206653Y228755D01*
X206816Y228670D01*
X206833Y228665D01*
X206849Y228657D01*
X207027Y228609D01*
X207202Y228559D01*
X207220Y228557D01*
X207237Y228553D01*
X207568Y228526D01*
X215391Y228526D01*
X215391Y223940D01*
X215218Y223294D01*
X215127Y223137D01*
X215066Y223003D01*
X214999Y222874D01*
X214984Y222820D01*
X214961Y222770D01*
X214928Y222627D01*
X214888Y222487D01*
X214883Y222431D01*
X214871Y222377D01*
X214867Y222231D01*
X214855Y222085D01*
X214861Y222030D01*
X214860Y221975D01*
X214885Y221831D01*
X214902Y221686D01*
X214919Y221633D01*
X214928Y221578D01*
X214981Y221442D01*
X215026Y221303D01*
X215054Y221254D01*
X215074Y221203D01*
X215152Y221080D01*
X215224Y220952D01*
X215261Y220910D01*
X215290Y220863D01*
X215392Y220758D01*
X215488Y220647D01*
X215531Y220614D01*
X215570Y220574D01*
X215690Y220490D01*
X215806Y220401D01*
X215855Y220376D01*
X215901Y220344D01*
X216035Y220287D01*
X216166Y220221D01*
X216220Y220207D01*
X216271Y220185D01*
X216414Y220155D01*
X216555Y220117D01*
X216618Y220112D01*
X216665Y220102D01*
X216748Y220101D01*
X216886Y220090D01*
X217859Y220090D01*
X219353Y219471D01*
X220550Y218274D01*
X220570Y218257D01*
X220588Y218236D01*
X220726Y218129D01*
X220861Y218019D01*
X220885Y218006D01*
X220906Y217990D01*
X221063Y217912D01*
X221217Y217830D01*
X221242Y217822D01*
X221267Y217810D01*
X221436Y217765D01*
X221603Y217715D01*
X221629Y217713D01*
X221655Y217706D01*
X221986Y217679D01*
X247904Y217679D01*
X247922Y217681D01*
X247940Y217679D01*
X248122Y217700D01*
X248305Y217719D01*
X248322Y217724D01*
X248339Y217726D01*
X248514Y217783D01*
X248690Y217837D01*
X248705Y217845D01*
X248722Y217851D01*
X248882Y217941D01*
X249044Y218029D01*
X249057Y218040D01*
X249073Y218049D01*
X249212Y218169D01*
X249353Y218286D01*
X249364Y218300D01*
X249378Y218312D01*
X249490Y218457D01*
X249605Y218600D01*
X249613Y218616D01*
X249624Y218630D01*
X249706Y218794D01*
X249791Y218957D01*
X249796Y218974D01*
X249804Y218990D01*
X249851Y219169D01*
X249902Y219344D01*
X249904Y219362D01*
X249908Y219379D01*
X249935Y219710D01*
X249935Y233219D01*
X250554Y234712D01*
X251698Y235856D01*
X253191Y236475D01*
X413559Y236475D01*
X415052Y235856D01*
X416196Y234712D01*
X416815Y233219D01*
X416815Y71581D01*
X416196Y70088D01*
X415052Y68944D01*
X413559Y68325D01*
X253191Y68325D01*
X251698Y68944D01*
X250554Y70088D01*
X249935Y71581D01*
X249935Y199390D01*
X249933Y199408D01*
X249935Y199426D01*
X249914Y199608D01*
X249895Y199791D01*
X249890Y199808D01*
X249888Y199825D01*
X249831Y200000D01*
X249777Y200176D01*
X249769Y200191D01*
X249763Y200208D01*
X249673Y200368D01*
X249585Y200530D01*
X249574Y200543D01*
X249565Y200559D01*
X249445Y200698D01*
X249328Y200839D01*
X249314Y200850D01*
X249302Y200864D01*
X249157Y200976D01*
X249014Y201091D01*
X248998Y201099D01*
X248984Y201110D01*
X248819Y201192D01*
X248657Y201277D01*
X248640Y201282D01*
X248624Y201290D01*
X248445Y201337D01*
X248270Y201388D01*
X248252Y201390D01*
X248235Y201394D01*
X247904Y201421D01*
X222669Y201421D01*
X222655Y201420D01*
X222642Y201421D01*
X222456Y201400D01*
X222268Y201381D01*
X222255Y201377D01*
X222242Y201376D01*
X222064Y201319D01*
X221883Y201263D01*
X221871Y201257D01*
X221859Y201253D01*
X221694Y201161D01*
X221529Y201071D01*
X221519Y201063D01*
X221507Y201056D01*
X221363Y200933D01*
X221220Y200814D01*
X221211Y200803D01*
X221201Y200795D01*
X221085Y200646D01*
X220967Y200500D01*
X220961Y200488D01*
X220953Y200478D01*
X220868Y200309D01*
X220782Y200143D01*
X220778Y200130D01*
X220772Y200118D01*
X220722Y199936D01*
X220671Y199756D01*
X220669Y199742D01*
X220666Y199729D01*
X220653Y199543D01*
X220638Y199354D01*
X220639Y199341D01*
X220638Y199328D01*
X220663Y199142D01*
X220685Y198955D01*
X220689Y198942D01*
X220690Y198929D01*
X220792Y198613D01*
X221115Y197834D01*
X221115Y183216D01*
X220496Y181723D01*
X219352Y180579D01*
X218897Y180391D01*
X218829Y180354D01*
X218756Y180326D01*
X218652Y180259D01*
X218542Y180200D01*
X218482Y180151D01*
X218417Y180109D01*
X218328Y180023D01*
X218232Y179944D01*
X218183Y179884D01*
X218127Y179829D01*
X218056Y179727D01*
X217978Y179631D01*
X217942Y179562D01*
X217898Y179498D01*
X217849Y179384D01*
X217791Y179275D01*
X217769Y179200D01*
X217739Y179129D01*
X217713Y179007D01*
X217678Y178888D01*
X217672Y178811D01*
X217655Y178735D01*
X217654Y178611D01*
X217644Y178487D01*
X217652Y178410D01*
X217652Y178332D01*
X217675Y178210D01*
X217689Y178087D01*
X217712Y178013D01*
X217727Y177937D01*
X217774Y177822D01*
X217812Y177704D01*
X217850Y177636D01*
X217879Y177564D01*
X217948Y177460D01*
X218008Y177352D01*
X218059Y177293D01*
X218102Y177228D01*
X218190Y177141D01*
X218270Y177047D01*
X218331Y176999D01*
X218386Y176943D01*
X218518Y176852D01*
X218587Y176798D01*
X218603Y176790D01*
X219083Y176310D01*
X219418Y175731D01*
X219591Y175085D01*
X219591Y171499D01*
X210768Y171499D01*
X210750Y171497D01*
X210733Y171499D01*
X210550Y171478D01*
X210368Y171459D01*
X210351Y171454D01*
X210333Y171452D01*
X210158Y171395D01*
X209983Y171341D01*
X209967Y171333D01*
X209950Y171327D01*
X209790Y171237D01*
X209629Y171149D01*
X209615Y171138D01*
X209599Y171129D01*
X209460Y171009D01*
X209319Y170892D01*
X209308Y170878D01*
X209295Y170866D01*
X209182Y170721D01*
X209067Y170578D01*
X209059Y170562D01*
X209048Y170548D01*
X208966Y170383D01*
X208882Y170221D01*
X208877Y170204D01*
X208869Y170188D01*
X208821Y170009D01*
X208770Y169834D01*
X208769Y169816D01*
X208764Y169799D01*
X208737Y169468D01*
X208737Y167032D01*
X208739Y167014D01*
X208737Y166996D01*
X208759Y166814D01*
X208777Y166631D01*
X208782Y166614D01*
X208784Y166597D01*
X208841Y166422D01*
X208895Y166246D01*
X208903Y166231D01*
X208909Y166214D01*
X208999Y166054D01*
X209087Y165892D01*
X209098Y165879D01*
X209107Y165863D01*
X209227Y165724D01*
X209345Y165583D01*
X209358Y165572D01*
X209370Y165558D01*
X209515Y165446D01*
X209658Y165331D01*
X209674Y165323D01*
X209688Y165312D01*
X209853Y165230D01*
X210016Y165145D01*
X210033Y165140D01*
X210049Y165132D01*
X210227Y165084D01*
X210402Y165034D01*
X210420Y165032D01*
X210437Y165028D01*
X210768Y165001D01*
X219591Y165001D01*
X219591Y161415D01*
X219375Y160610D01*
X219360Y160520D01*
X219336Y160432D01*
X219328Y160322D01*
X219310Y160213D01*
X219313Y160122D01*
X219306Y160031D01*
X219320Y159921D01*
X219324Y159810D01*
X219345Y159722D01*
X219357Y159631D01*
X219392Y159526D01*
X219418Y159419D01*
X219456Y159336D01*
X219485Y159250D01*
X219540Y159154D01*
X219587Y159053D01*
X219640Y158980D01*
X219686Y158901D01*
X219775Y158796D01*
X219824Y158728D01*
X219860Y158696D01*
X219901Y158648D01*
X220496Y158052D01*
X221115Y156559D01*
X221115Y141941D01*
X220508Y140477D01*
X220501Y140452D01*
X220488Y140428D01*
X220442Y140259D01*
X220392Y140092D01*
X220389Y140065D01*
X220382Y140039D01*
X220370Y139865D01*
X220354Y139691D01*
X220356Y139665D01*
X220355Y139638D01*
X220377Y139463D01*
X220395Y139291D01*
X220403Y139265D01*
X220407Y139239D01*
X220508Y138923D01*
X221115Y137459D01*
X221115Y122842D01*
X220529Y121427D01*
X220521Y121402D01*
X220509Y121378D01*
X220463Y121209D01*
X220413Y121042D01*
X220410Y121015D01*
X220403Y120989D01*
X220391Y120815D01*
X220374Y120641D01*
X220377Y120615D01*
X220375Y120588D01*
X220398Y120415D01*
X220416Y120241D01*
X220424Y120215D01*
X220427Y120189D01*
X220529Y119873D01*
X221115Y118459D01*
X221115Y103841D01*
X220508Y102377D01*
X220501Y102352D01*
X220489Y102328D01*
X220442Y102160D01*
X220392Y101992D01*
X220389Y101965D01*
X220382Y101939D01*
X220370Y101765D01*
X220354Y101591D01*
X220356Y101565D01*
X220355Y101538D01*
X220377Y101364D01*
X220395Y101191D01*
X220403Y101165D01*
X220407Y101139D01*
X220508Y100823D01*
X221115Y99359D01*
X221115Y84742D01*
X220529Y83327D01*
X220521Y83302D01*
X220509Y83278D01*
X220463Y83109D01*
X220413Y82942D01*
X220410Y82915D01*
X220403Y82889D01*
X220391Y82715D01*
X220374Y82541D01*
X220377Y82515D01*
X220375Y82488D01*
X220398Y82315D01*
X220416Y82141D01*
X220424Y82115D01*
X220427Y82089D01*
X220529Y81773D01*
X221115Y80359D01*
X221115Y65741D01*
X220496Y64248D01*
X219352Y63104D01*
X217859Y62485D01*
X217500Y62485D01*
X217427Y62478D01*
X217354Y62480D01*
X217227Y62458D01*
X217100Y62445D01*
X217030Y62424D01*
X216957Y62411D01*
X216837Y62365D01*
X216715Y62327D01*
X216650Y62292D01*
X216582Y62266D01*
X216473Y62197D01*
X216361Y62135D01*
X216304Y62089D01*
X216243Y62049D01*
X216150Y61960D01*
X216051Y61878D01*
X216005Y61821D01*
X215953Y61770D01*
X215879Y61664D01*
X215799Y61564D01*
X215765Y61499D01*
X215724Y61439D01*
X215673Y61320D01*
X215613Y61207D01*
X215593Y61136D01*
X215564Y61069D01*
X215538Y60943D01*
X215502Y60820D01*
X215496Y60747D01*
X215481Y60675D01*
X215480Y60547D01*
X215469Y60418D01*
X215478Y60346D01*
X215477Y60272D01*
X215501Y60146D01*
X215516Y60019D01*
X215539Y59949D01*
X215553Y59877D01*
X215601Y59758D01*
X215641Y59636D01*
X215677Y59572D01*
X215705Y59504D01*
X215776Y59397D01*
X215839Y59285D01*
X215887Y59230D01*
X215927Y59169D01*
X216018Y59078D01*
X216102Y58981D01*
X216160Y58936D01*
X216212Y58884D01*
X216351Y58787D01*
X216420Y58734D01*
X216450Y58719D01*
X216485Y58695D01*
X219406Y57008D01*
X225283Y51131D01*
X229439Y43933D01*
X231590Y35906D01*
X231590Y27594D01*
X229439Y19567D01*
X225283Y12369D01*
X219406Y6492D01*
X218248Y5823D01*
X218188Y5780D01*
X218124Y5745D01*
X218025Y5663D01*
X217921Y5588D01*
X217871Y5535D01*
X217815Y5488D01*
X217734Y5388D01*
X217646Y5293D01*
X217608Y5231D01*
X217562Y5174D01*
X217503Y5060D01*
X217436Y4950D01*
X217410Y4882D01*
X217377Y4817D01*
X217341Y4693D01*
X217297Y4573D01*
X217286Y4500D01*
X217265Y4430D01*
X217255Y4301D01*
X217235Y4175D01*
X217238Y4102D01*
X217232Y4028D01*
X217247Y3901D01*
X217253Y3772D01*
X217271Y3701D01*
X217279Y3629D01*
X217319Y3507D01*
X217350Y3382D01*
X217381Y3315D01*
X217404Y3246D01*
X217467Y3134D01*
X217522Y3018D01*
X217566Y2959D01*
X217602Y2895D01*
X217686Y2798D01*
X217763Y2695D01*
X217817Y2646D01*
X217865Y2590D01*
X217967Y2512D01*
X218062Y2426D01*
X218126Y2389D01*
X218183Y2344D01*
X218298Y2286D01*
X218409Y2221D01*
X218478Y2197D01*
X218544Y2164D01*
X218668Y2131D01*
X218789Y2089D01*
X218862Y2079D01*
X218933Y2060D01*
X219102Y2046D01*
X219188Y2034D01*
X219221Y2036D01*
X219263Y2033D01*
X421261Y2033D01*
X421279Y2035D01*
G37*
G36*
X180860Y2040D02*
X180860Y2040D01*
X180933Y2038D01*
X181059Y2060D01*
X181187Y2073D01*
X181257Y2094D01*
X181330Y2107D01*
X181449Y2153D01*
X181572Y2191D01*
X181637Y2226D01*
X181705Y2252D01*
X181813Y2321D01*
X181926Y2383D01*
X181982Y2429D01*
X182044Y2469D01*
X182137Y2558D01*
X182235Y2640D01*
X182281Y2697D01*
X182334Y2748D01*
X182407Y2854D01*
X182488Y2954D01*
X182522Y3019D01*
X182563Y3079D01*
X182614Y3197D01*
X182673Y3311D01*
X182694Y3382D01*
X182723Y3449D01*
X182749Y3575D01*
X182785Y3698D01*
X182791Y3771D01*
X182806Y3843D01*
X182807Y3971D01*
X182818Y4100D01*
X182809Y4172D01*
X182810Y4246D01*
X182786Y4372D01*
X182771Y4499D01*
X182748Y4569D01*
X182734Y4641D01*
X182686Y4760D01*
X182646Y4882D01*
X182610Y4946D01*
X182582Y5014D01*
X182511Y5121D01*
X182448Y5233D01*
X182400Y5288D01*
X182360Y5349D01*
X182269Y5440D01*
X182185Y5537D01*
X182127Y5582D01*
X182075Y5634D01*
X181935Y5731D01*
X181867Y5784D01*
X181837Y5799D01*
X181802Y5823D01*
X180644Y6492D01*
X174767Y12369D01*
X170611Y19567D01*
X168460Y27594D01*
X168460Y35906D01*
X170611Y43933D01*
X174767Y51131D01*
X180644Y57008D01*
X183565Y58695D01*
X183625Y58738D01*
X183689Y58773D01*
X183788Y58855D01*
X183892Y58930D01*
X183942Y58983D01*
X183999Y59030D01*
X184079Y59130D01*
X184167Y59225D01*
X184205Y59287D01*
X184251Y59344D01*
X184310Y59458D01*
X184377Y59568D01*
X184403Y59636D01*
X184437Y59701D01*
X184472Y59825D01*
X184516Y59945D01*
X184528Y60018D01*
X184548Y60088D01*
X184558Y60217D01*
X184578Y60343D01*
X184575Y60416D01*
X184581Y60490D01*
X184566Y60617D01*
X184560Y60746D01*
X184542Y60817D01*
X184534Y60889D01*
X184494Y61012D01*
X184463Y61136D01*
X184432Y61202D01*
X184409Y61272D01*
X184346Y61384D01*
X184291Y61500D01*
X184247Y61559D01*
X184211Y61623D01*
X184127Y61720D01*
X184050Y61823D01*
X183996Y61872D01*
X183948Y61928D01*
X183847Y62006D01*
X183751Y62092D01*
X183688Y62129D01*
X183630Y62174D01*
X183515Y62232D01*
X183404Y62297D01*
X183335Y62321D01*
X183269Y62354D01*
X183145Y62387D01*
X183024Y62429D01*
X182951Y62439D01*
X182881Y62458D01*
X182711Y62472D01*
X182625Y62484D01*
X182592Y62482D01*
X182550Y62485D01*
X179016Y62485D01*
X177523Y63104D01*
X176379Y64248D01*
X175760Y65741D01*
X175760Y80358D01*
X176346Y81773D01*
X176354Y81798D01*
X176366Y81822D01*
X176412Y81991D01*
X176462Y82158D01*
X176465Y82185D01*
X176472Y82211D01*
X176484Y82385D01*
X176501Y82559D01*
X176498Y82585D01*
X176500Y82612D01*
X176477Y82785D01*
X176459Y82959D01*
X176451Y82985D01*
X176448Y83011D01*
X176346Y83327D01*
X175760Y84741D01*
X175760Y99275D01*
X175758Y99302D01*
X175760Y99328D01*
X175738Y99502D01*
X175720Y99676D01*
X175713Y99701D01*
X175709Y99728D01*
X175654Y99893D01*
X175602Y100060D01*
X175589Y100084D01*
X175581Y100109D01*
X175494Y100261D01*
X175410Y100415D01*
X175393Y100435D01*
X175380Y100458D01*
X175165Y100711D01*
X173879Y101998D01*
X173260Y103491D01*
X173260Y103551D01*
X173259Y103564D01*
X173260Y103578D01*
X173239Y103764D01*
X173220Y103952D01*
X173216Y103964D01*
X173215Y103978D01*
X173157Y104157D01*
X173102Y104336D01*
X173096Y104348D01*
X173092Y104361D01*
X173000Y104525D01*
X172910Y104691D01*
X172902Y104701D01*
X172895Y104713D01*
X172773Y104856D01*
X172653Y105000D01*
X172642Y105008D01*
X172634Y105018D01*
X172485Y105134D01*
X172339Y105252D01*
X172327Y105258D01*
X172317Y105267D01*
X172148Y105351D01*
X171982Y105438D01*
X171969Y105441D01*
X171957Y105447D01*
X171775Y105497D01*
X171595Y105549D01*
X171581Y105550D01*
X171568Y105554D01*
X171382Y105566D01*
X171193Y105582D01*
X171180Y105580D01*
X171167Y105581D01*
X170981Y105557D01*
X170794Y105535D01*
X170781Y105531D01*
X170768Y105529D01*
X170452Y105428D01*
X169488Y105028D01*
X163703Y105028D01*
X163685Y105026D01*
X163667Y105028D01*
X163485Y105007D01*
X163302Y104988D01*
X163285Y104983D01*
X163268Y104981D01*
X163093Y104924D01*
X162917Y104870D01*
X162902Y104862D01*
X162885Y104856D01*
X162725Y104766D01*
X162563Y104678D01*
X162550Y104667D01*
X162534Y104658D01*
X162395Y104538D01*
X162254Y104421D01*
X162243Y104407D01*
X162229Y104395D01*
X162117Y104250D01*
X162002Y104107D01*
X161994Y104091D01*
X161983Y104077D01*
X161901Y103912D01*
X161816Y103750D01*
X161811Y103733D01*
X161803Y103717D01*
X161756Y103538D01*
X161705Y103363D01*
X161703Y103345D01*
X161699Y103328D01*
X161672Y102997D01*
X161672Y91171D01*
X161674Y91144D01*
X161672Y91118D01*
X161694Y90944D01*
X161712Y90770D01*
X161719Y90745D01*
X161723Y90718D01*
X161778Y90553D01*
X161830Y90386D01*
X161843Y90362D01*
X161851Y90337D01*
X161938Y90185D01*
X162022Y90031D01*
X162039Y90011D01*
X162052Y89988D01*
X162267Y89735D01*
X162323Y89678D01*
X162942Y88185D01*
X162942Y66247D01*
X162323Y64754D01*
X161179Y63610D01*
X159686Y62991D01*
X156161Y62991D01*
X156152Y62990D01*
X156143Y62991D01*
X155951Y62970D01*
X155760Y62951D01*
X155752Y62949D01*
X155743Y62948D01*
X155560Y62890D01*
X155375Y62833D01*
X155368Y62829D01*
X155359Y62826D01*
X155190Y62733D01*
X155021Y62641D01*
X155015Y62636D01*
X155007Y62631D01*
X154859Y62506D01*
X154712Y62384D01*
X154707Y62377D01*
X154700Y62371D01*
X154579Y62218D01*
X154460Y62070D01*
X154456Y62062D01*
X154450Y62055D01*
X154362Y61882D01*
X154274Y61713D01*
X154272Y61704D01*
X154268Y61696D01*
X154216Y61511D01*
X154163Y61326D01*
X154162Y61317D01*
X154160Y61308D01*
X154146Y61115D01*
X154130Y60924D01*
X154131Y60916D01*
X154130Y60907D01*
X154155Y60712D01*
X154177Y60525D01*
X154180Y60516D01*
X154181Y60507D01*
X154242Y60325D01*
X154302Y60142D01*
X154306Y60134D01*
X154309Y60126D01*
X154405Y59958D01*
X154500Y59791D01*
X154506Y59784D01*
X154510Y59777D01*
X154725Y59524D01*
X155321Y58927D01*
X155940Y57434D01*
X155940Y37816D01*
X155317Y36314D01*
X155221Y36192D01*
X155105Y36050D01*
X155096Y36034D01*
X155085Y36020D01*
X155002Y35856D01*
X154916Y35694D01*
X154911Y35677D01*
X154903Y35661D01*
X154853Y35484D01*
X154801Y35308D01*
X154800Y35291D01*
X154795Y35273D01*
X154781Y35090D01*
X154765Y34907D01*
X154767Y34890D01*
X154765Y34872D01*
X154789Y34689D01*
X154808Y34507D01*
X154814Y34490D01*
X154816Y34472D01*
X154874Y34298D01*
X154930Y34123D01*
X154938Y34108D01*
X154944Y34091D01*
X155036Y33932D01*
X155124Y33771D01*
X155136Y33757D01*
X155145Y33742D01*
X155315Y33541D01*
X155940Y32034D01*
X155940Y12416D01*
X155321Y10923D01*
X154177Y9779D01*
X152684Y9160D01*
X133023Y9160D01*
X132976Y9173D01*
X132813Y9222D01*
X132782Y9225D01*
X132752Y9233D01*
X132421Y9260D01*
X115341Y9260D01*
X113848Y9879D01*
X112704Y11023D01*
X112085Y12516D01*
X112085Y31934D01*
X112704Y33427D01*
X112765Y33489D01*
X112777Y33502D01*
X112790Y33514D01*
X112904Y33658D01*
X113020Y33800D01*
X113029Y33816D01*
X113040Y33830D01*
X113123Y33994D01*
X113209Y34156D01*
X113214Y34173D01*
X113222Y34189D01*
X113272Y34367D01*
X113324Y34542D01*
X113325Y34559D01*
X113330Y34577D01*
X113344Y34760D01*
X113360Y34943D01*
X113358Y34960D01*
X113360Y34978D01*
X113337Y35161D01*
X113317Y35343D01*
X113311Y35360D01*
X113309Y35378D01*
X113251Y35551D01*
X113195Y35727D01*
X113187Y35743D01*
X113181Y35759D01*
X113089Y35918D01*
X113000Y36079D01*
X112989Y36093D01*
X112980Y36108D01*
X112765Y36361D01*
X112704Y36423D01*
X112085Y37916D01*
X112085Y57334D01*
X112704Y58827D01*
X113692Y59816D01*
X113701Y59826D01*
X113711Y59834D01*
X113828Y59981D01*
X113947Y60127D01*
X113954Y60139D01*
X113962Y60149D01*
X114048Y60317D01*
X114136Y60483D01*
X114140Y60495D01*
X114146Y60507D01*
X114197Y60689D01*
X114251Y60869D01*
X114252Y60882D01*
X114255Y60895D01*
X114270Y61081D01*
X114287Y61270D01*
X114286Y61283D01*
X114287Y61296D01*
X114264Y61482D01*
X114244Y61670D01*
X114240Y61683D01*
X114238Y61696D01*
X114179Y61874D01*
X114122Y62054D01*
X114116Y62065D01*
X114111Y62078D01*
X114019Y62241D01*
X113927Y62406D01*
X113919Y62416D01*
X113912Y62428D01*
X113789Y62570D01*
X113667Y62713D01*
X113656Y62721D01*
X113648Y62731D01*
X113499Y62846D01*
X113351Y62963D01*
X113339Y62969D01*
X113328Y62977D01*
X113033Y63128D01*
X111902Y63597D01*
X111877Y63605D01*
X111853Y63617D01*
X111684Y63663D01*
X111517Y63713D01*
X111490Y63716D01*
X111464Y63723D01*
X111289Y63735D01*
X111116Y63752D01*
X111090Y63749D01*
X111063Y63751D01*
X110889Y63728D01*
X110716Y63710D01*
X110690Y63702D01*
X110664Y63698D01*
X110348Y63597D01*
X108886Y62991D01*
X100664Y62991D01*
X99202Y63597D01*
X99177Y63605D01*
X99153Y63617D01*
X98984Y63663D01*
X98817Y63713D01*
X98790Y63716D01*
X98764Y63723D01*
X98589Y63735D01*
X98416Y63752D01*
X98390Y63749D01*
X98363Y63751D01*
X98189Y63728D01*
X98016Y63710D01*
X97990Y63702D01*
X97964Y63698D01*
X97648Y63597D01*
X96186Y62991D01*
X87964Y62991D01*
X86502Y63597D01*
X86477Y63605D01*
X86453Y63617D01*
X86284Y63663D01*
X86117Y63713D01*
X86090Y63716D01*
X86064Y63723D01*
X85889Y63735D01*
X85716Y63752D01*
X85690Y63749D01*
X85663Y63751D01*
X85489Y63728D01*
X85316Y63710D01*
X85290Y63702D01*
X85264Y63698D01*
X84948Y63597D01*
X83486Y62991D01*
X75264Y62991D01*
X73771Y63610D01*
X72627Y64754D01*
X72008Y66247D01*
X72008Y80707D01*
X72007Y80716D01*
X72008Y80725D01*
X71987Y80917D01*
X71968Y81108D01*
X71966Y81117D01*
X71965Y81125D01*
X71907Y81309D01*
X71850Y81493D01*
X71846Y81501D01*
X71843Y81509D01*
X71750Y81678D01*
X71658Y81847D01*
X71653Y81854D01*
X71648Y81862D01*
X71523Y82009D01*
X71401Y82156D01*
X71394Y82162D01*
X71388Y82169D01*
X71236Y82289D01*
X71087Y82408D01*
X71079Y82413D01*
X71072Y82418D01*
X70899Y82506D01*
X70730Y82594D01*
X70721Y82596D01*
X70713Y82601D01*
X70528Y82652D01*
X70343Y82705D01*
X70334Y82706D01*
X70325Y82709D01*
X70133Y82723D01*
X69941Y82738D01*
X69933Y82737D01*
X69924Y82738D01*
X69732Y82714D01*
X69542Y82691D01*
X69533Y82689D01*
X69524Y82687D01*
X69342Y82626D01*
X69159Y82567D01*
X69151Y82562D01*
X69143Y82559D01*
X68975Y82463D01*
X68808Y82369D01*
X68801Y82363D01*
X68794Y82358D01*
X68541Y82144D01*
X67731Y81334D01*
X67717Y81317D01*
X67700Y81303D01*
X67590Y81162D01*
X67476Y81023D01*
X67466Y81003D01*
X67452Y80986D01*
X67372Y80826D01*
X67288Y80667D01*
X67281Y80646D01*
X67271Y80626D01*
X67224Y80453D01*
X67173Y80281D01*
X67171Y80259D01*
X67165Y80238D01*
X67153Y80059D01*
X67137Y79880D01*
X67139Y79858D01*
X67137Y79836D01*
X67161Y79658D01*
X67180Y79480D01*
X67187Y79459D01*
X67190Y79437D01*
X67291Y79121D01*
X67690Y78159D01*
X67690Y61541D01*
X67071Y60048D01*
X66277Y59253D01*
X66262Y59236D01*
X66245Y59221D01*
X66136Y59081D01*
X66022Y58942D01*
X66011Y58922D01*
X65997Y58904D01*
X65917Y58745D01*
X65833Y58586D01*
X65827Y58565D01*
X65817Y58544D01*
X65769Y58372D01*
X65718Y58200D01*
X65716Y58178D01*
X65710Y58156D01*
X65698Y57978D01*
X65682Y57799D01*
X65684Y57777D01*
X65683Y57754D01*
X65706Y57578D01*
X65715Y57496D01*
X65715Y37916D01*
X65096Y36422D01*
X63934Y35261D01*
X63837Y35141D01*
X63732Y35026D01*
X63709Y34985D01*
X63679Y34949D01*
X63607Y34813D01*
X63528Y34679D01*
X63512Y34635D01*
X63491Y34594D01*
X63446Y34445D01*
X63395Y34299D01*
X63389Y34253D01*
X63376Y34208D01*
X63362Y34053D01*
X63341Y33900D01*
X63344Y33853D01*
X63339Y33807D01*
X63356Y33653D01*
X63366Y33498D01*
X63378Y33453D01*
X63383Y33407D01*
X63430Y33259D01*
X63470Y33109D01*
X63492Y33061D01*
X63504Y33023D01*
X63546Y32947D01*
X63612Y32809D01*
X64018Y32106D01*
X64191Y31460D01*
X64191Y26099D01*
X55743Y26099D01*
X55725Y26097D01*
X55708Y26099D01*
X55525Y26078D01*
X55343Y26059D01*
X55326Y26054D01*
X55308Y26052D01*
X55133Y25995D01*
X54958Y25941D01*
X54942Y25933D01*
X54925Y25927D01*
X54765Y25837D01*
X54604Y25749D01*
X54590Y25738D01*
X54574Y25729D01*
X54435Y25609D01*
X54294Y25492D01*
X54283Y25478D01*
X54270Y25466D01*
X54157Y25321D01*
X54042Y25178D01*
X54034Y25162D01*
X54023Y25148D01*
X53941Y24983D01*
X53857Y24821D01*
X53852Y24804D01*
X53844Y24788D01*
X53796Y24609D01*
X53745Y24434D01*
X53744Y24416D01*
X53739Y24399D01*
X53712Y24068D01*
X53712Y22413D01*
X52057Y22413D01*
X52039Y22411D01*
X52021Y22413D01*
X51839Y22391D01*
X51656Y22373D01*
X51639Y22368D01*
X51622Y22366D01*
X51447Y22309D01*
X51271Y22255D01*
X51256Y22247D01*
X51239Y22241D01*
X51079Y22151D01*
X50917Y22063D01*
X50904Y22052D01*
X50888Y22043D01*
X50749Y21923D01*
X50608Y21805D01*
X50597Y21792D01*
X50583Y21780D01*
X50471Y21635D01*
X50356Y21492D01*
X50348Y21476D01*
X50337Y21462D01*
X50255Y21297D01*
X50170Y21134D01*
X50165Y21117D01*
X50157Y21101D01*
X50109Y20923D01*
X50059Y20748D01*
X50057Y20730D01*
X50053Y20713D01*
X50026Y20382D01*
X50026Y10784D01*
X45815Y10784D01*
X45169Y10957D01*
X44590Y11292D01*
X44117Y11765D01*
X43782Y12344D01*
X43609Y12990D01*
X43609Y16129D01*
X43607Y16147D01*
X43609Y16165D01*
X43588Y16347D01*
X43569Y16530D01*
X43564Y16547D01*
X43562Y16564D01*
X43505Y16739D01*
X43451Y16915D01*
X43443Y16930D01*
X43437Y16947D01*
X43347Y17107D01*
X43259Y17269D01*
X43248Y17282D01*
X43239Y17298D01*
X43119Y17437D01*
X43002Y17578D01*
X42988Y17589D01*
X42976Y17603D01*
X42831Y17715D01*
X42688Y17830D01*
X42672Y17838D01*
X42658Y17849D01*
X42493Y17931D01*
X42331Y18016D01*
X42314Y18021D01*
X42298Y18029D01*
X42119Y18076D01*
X41944Y18127D01*
X41926Y18129D01*
X41909Y18133D01*
X41578Y18160D01*
X22051Y18160D01*
X20558Y18779D01*
X19414Y19923D01*
X18875Y21224D01*
X18864Y21244D01*
X18857Y21265D01*
X18769Y21421D01*
X18685Y21579D01*
X18670Y21596D01*
X18660Y21616D01*
X18543Y21751D01*
X18428Y21890D01*
X18411Y21904D01*
X18396Y21921D01*
X18255Y22030D01*
X18116Y22143D01*
X18096Y22154D01*
X18078Y22167D01*
X17917Y22247D01*
X17759Y22330D01*
X17738Y22337D01*
X17718Y22347D01*
X17544Y22393D01*
X17373Y22443D01*
X17351Y22445D01*
X17329Y22451D01*
X16998Y22478D01*
X14662Y22478D01*
X12421Y23406D01*
X10706Y25121D01*
X9778Y27362D01*
X9778Y71063D01*
X10706Y73304D01*
X12421Y75019D01*
X14662Y75947D01*
X25529Y75947D01*
X25547Y75949D01*
X25565Y75947D01*
X25747Y75968D01*
X25930Y75987D01*
X25947Y75992D01*
X25964Y75994D01*
X26139Y76051D01*
X26315Y76105D01*
X26330Y76113D01*
X26347Y76119D01*
X26507Y76209D01*
X26669Y76297D01*
X26682Y76308D01*
X26698Y76317D01*
X26837Y76437D01*
X26978Y76554D01*
X26989Y76568D01*
X27003Y76580D01*
X27115Y76725D01*
X27230Y76868D01*
X27238Y76884D01*
X27249Y76898D01*
X27331Y77063D01*
X27416Y77225D01*
X27421Y77242D01*
X27429Y77258D01*
X27476Y77437D01*
X27527Y77612D01*
X27529Y77630D01*
X27533Y77647D01*
X27560Y77978D01*
X27560Y78159D01*
X28179Y79652D01*
X29323Y80796D01*
X29700Y80952D01*
X29825Y81019D01*
X29953Y81079D01*
X30002Y81114D01*
X30055Y81142D01*
X30164Y81233D01*
X30278Y81316D01*
X30319Y81361D01*
X30365Y81399D01*
X30454Y81509D01*
X30550Y81614D01*
X30581Y81665D01*
X30619Y81711D01*
X30684Y81837D01*
X30758Y81958D01*
X30778Y82015D01*
X30806Y82068D01*
X30846Y82204D01*
X30893Y82338D01*
X30902Y82397D01*
X30919Y82454D01*
X30931Y82596D01*
X30951Y82736D01*
X30948Y82796D01*
X30953Y82855D01*
X30938Y82996D01*
X30930Y83138D01*
X30915Y83196D01*
X30908Y83255D01*
X30865Y83391D01*
X30830Y83528D01*
X30803Y83582D01*
X30785Y83639D01*
X30716Y83763D01*
X30654Y83890D01*
X30618Y83938D01*
X30589Y83990D01*
X30496Y84098D01*
X30411Y84211D01*
X30366Y84251D01*
X30327Y84296D01*
X30215Y84384D01*
X30109Y84477D01*
X30057Y84507D01*
X30010Y84544D01*
X29883Y84608D01*
X29760Y84679D01*
X29696Y84702D01*
X29650Y84725D01*
X29571Y84747D01*
X29448Y84791D01*
X29091Y84886D01*
X21894Y89042D01*
X16017Y94919D01*
X11861Y102117D01*
X9710Y110144D01*
X9710Y118456D01*
X11861Y126483D01*
X16017Y133681D01*
X21894Y139558D01*
X29092Y143714D01*
X37119Y145865D01*
X45431Y145865D01*
X53458Y143714D01*
X60656Y139558D01*
X66533Y133681D01*
X69742Y128123D01*
X69785Y128064D01*
X69820Y127999D01*
X69902Y127901D01*
X69977Y127796D01*
X70030Y127746D01*
X70077Y127690D01*
X70177Y127610D01*
X70272Y127522D01*
X70334Y127484D01*
X70391Y127438D01*
X70505Y127379D01*
X70615Y127311D01*
X70683Y127286D01*
X70748Y127252D01*
X70872Y127217D01*
X70992Y127172D01*
X71065Y127161D01*
X71135Y127141D01*
X71264Y127130D01*
X71390Y127111D01*
X71463Y127114D01*
X71537Y127108D01*
X71664Y127123D01*
X71793Y127129D01*
X71864Y127146D01*
X71936Y127155D01*
X72059Y127195D01*
X72183Y127226D01*
X72249Y127257D01*
X72319Y127280D01*
X72431Y127343D01*
X72547Y127398D01*
X72606Y127442D01*
X72670Y127478D01*
X72767Y127562D01*
X72870Y127638D01*
X72919Y127693D01*
X72975Y127741D01*
X73053Y127842D01*
X73139Y127938D01*
X73176Y128001D01*
X73221Y128059D01*
X73279Y128174D01*
X73344Y128285D01*
X73368Y128354D01*
X73401Y128419D01*
X73434Y128544D01*
X73476Y128665D01*
X73486Y128737D01*
X73505Y128808D01*
X73519Y128978D01*
X73531Y129064D01*
X73529Y129097D01*
X73532Y129139D01*
X73532Y136653D01*
X77344Y136653D01*
X77344Y125983D01*
X75738Y125983D01*
X75092Y126156D01*
X74413Y126549D01*
X74336Y126612D01*
X74271Y126647D01*
X74210Y126689D01*
X74093Y126741D01*
X73980Y126801D01*
X73909Y126822D01*
X73842Y126851D01*
X73717Y126879D01*
X73594Y126916D01*
X73521Y126922D01*
X73449Y126938D01*
X73321Y126941D01*
X73193Y126952D01*
X73120Y126944D01*
X73046Y126946D01*
X72920Y126923D01*
X72793Y126909D01*
X72723Y126887D01*
X72650Y126874D01*
X72531Y126826D01*
X72409Y126788D01*
X72344Y126752D01*
X72276Y126725D01*
X72169Y126655D01*
X72056Y126593D01*
X72000Y126545D01*
X71939Y126505D01*
X71847Y126415D01*
X71749Y126332D01*
X71704Y126275D01*
X71651Y126223D01*
X71579Y126117D01*
X71500Y126017D01*
X71466Y125951D01*
X71425Y125890D01*
X71375Y125772D01*
X71317Y125658D01*
X71298Y125587D01*
X71269Y125519D01*
X71244Y125393D01*
X71209Y125270D01*
X71204Y125196D01*
X71189Y125124D01*
X71189Y124996D01*
X71180Y124868D01*
X71189Y124795D01*
X71189Y124722D01*
X71219Y124556D01*
X71230Y124469D01*
X71241Y124437D01*
X71248Y124395D01*
X72840Y118456D01*
X72840Y110144D01*
X71168Y103904D01*
X71154Y103823D01*
X71132Y103744D01*
X71122Y103624D01*
X71102Y103506D01*
X71105Y103424D01*
X71099Y103342D01*
X71113Y103224D01*
X71117Y103104D01*
X71136Y103024D01*
X71146Y102943D01*
X71183Y102829D01*
X71210Y102712D01*
X71245Y102638D01*
X71270Y102560D01*
X71329Y102455D01*
X71379Y102347D01*
X71428Y102281D01*
X71468Y102209D01*
X71547Y102119D01*
X71617Y102022D01*
X71678Y101967D01*
X71731Y101904D01*
X71826Y101831D01*
X71914Y101750D01*
X71985Y101708D01*
X72050Y101658D01*
X72157Y101604D01*
X72259Y101543D01*
X72336Y101515D01*
X72410Y101478D01*
X72526Y101447D01*
X72638Y101407D01*
X72719Y101395D01*
X72799Y101374D01*
X72951Y101361D01*
X73037Y101349D01*
X73077Y101351D01*
X73130Y101347D01*
X83947Y101347D01*
X83965Y101349D01*
X83983Y101347D01*
X84165Y101368D01*
X84348Y101387D01*
X84365Y101392D01*
X84382Y101394D01*
X84557Y101451D01*
X84733Y101505D01*
X84748Y101513D01*
X84765Y101519D01*
X84925Y101609D01*
X85087Y101697D01*
X85100Y101708D01*
X85116Y101717D01*
X85255Y101837D01*
X85396Y101954D01*
X85407Y101968D01*
X85421Y101980D01*
X85533Y102125D01*
X85648Y102268D01*
X85656Y102284D01*
X85667Y102298D01*
X85749Y102463D01*
X85834Y102625D01*
X85839Y102642D01*
X85847Y102658D01*
X85894Y102837D01*
X85945Y103012D01*
X85947Y103030D01*
X85951Y103047D01*
X85978Y103378D01*
X85978Y124131D01*
X85970Y124213D01*
X85972Y124295D01*
X85950Y124413D01*
X85938Y124532D01*
X85914Y124610D01*
X85900Y124691D01*
X85855Y124802D01*
X85820Y124917D01*
X85781Y124989D01*
X85751Y125065D01*
X85685Y125165D01*
X85628Y125271D01*
X85576Y125334D01*
X85531Y125403D01*
X85447Y125488D01*
X85371Y125580D01*
X85307Y125631D01*
X85249Y125690D01*
X85150Y125757D01*
X85057Y125832D01*
X84984Y125870D01*
X84916Y125916D01*
X84806Y125963D01*
X84700Y126018D01*
X84621Y126040D01*
X84545Y126072D01*
X84428Y126096D01*
X84313Y126129D01*
X84231Y126136D01*
X84150Y126152D01*
X84031Y126152D01*
X83911Y126162D01*
X83830Y126152D01*
X83748Y126152D01*
X83598Y126125D01*
X83512Y126115D01*
X83473Y126103D01*
X83421Y126093D01*
X83011Y125983D01*
X81406Y125983D01*
X81406Y138684D01*
X81406Y151385D01*
X83012Y151385D01*
X83893Y151149D01*
X83983Y151134D01*
X84070Y151109D01*
X84181Y151101D01*
X84290Y151083D01*
X84381Y151087D01*
X84472Y151080D01*
X84582Y151094D01*
X84693Y151098D01*
X84781Y151119D01*
X84871Y151130D01*
X84976Y151166D01*
X85084Y151191D01*
X85167Y151230D01*
X85253Y151259D01*
X85349Y151314D01*
X85450Y151360D01*
X85523Y151414D01*
X85602Y151460D01*
X85707Y151549D01*
X85775Y151598D01*
X85807Y151633D01*
X85855Y151674D01*
X86471Y152290D01*
X87964Y152909D01*
X96186Y152909D01*
X97648Y152303D01*
X97673Y152295D01*
X97697Y152283D01*
X97866Y152237D01*
X98033Y152187D01*
X98060Y152184D01*
X98086Y152177D01*
X98260Y152165D01*
X98434Y152148D01*
X98461Y152151D01*
X98487Y152149D01*
X98660Y152172D01*
X98834Y152190D01*
X98860Y152198D01*
X98886Y152202D01*
X99202Y152303D01*
X100664Y152909D01*
X108886Y152909D01*
X110348Y152303D01*
X110373Y152295D01*
X110397Y152283D01*
X110566Y152237D01*
X110733Y152187D01*
X110760Y152184D01*
X110786Y152177D01*
X110960Y152165D01*
X111134Y152148D01*
X111161Y152151D01*
X111187Y152149D01*
X111360Y152172D01*
X111534Y152190D01*
X111560Y152198D01*
X111586Y152202D01*
X111902Y152303D01*
X113364Y152909D01*
X121796Y152909D01*
X121869Y152903D01*
X122055Y152885D01*
X122069Y152886D01*
X122083Y152885D01*
X122269Y152907D01*
X122456Y152926D01*
X122469Y152931D01*
X122482Y152932D01*
X122661Y152990D01*
X122840Y153046D01*
X122852Y153053D01*
X122865Y153057D01*
X123029Y153150D01*
X123193Y153239D01*
X123204Y153248D01*
X123216Y153255D01*
X123358Y153378D01*
X123502Y153498D01*
X123510Y153509D01*
X123521Y153518D01*
X123636Y153666D01*
X123753Y153813D01*
X123759Y153825D01*
X123767Y153836D01*
X123851Y154004D01*
X123937Y154171D01*
X123940Y154184D01*
X123947Y154197D01*
X123995Y154378D01*
X124047Y154559D01*
X124048Y154572D01*
X124051Y154585D01*
X124078Y154916D01*
X124078Y156234D01*
X124077Y156247D01*
X124078Y156261D01*
X124057Y156448D01*
X124038Y156634D01*
X124034Y156648D01*
X124033Y156661D01*
X123975Y156840D01*
X123920Y157019D01*
X123914Y157031D01*
X123910Y157044D01*
X123818Y157208D01*
X123728Y157373D01*
X123720Y157384D01*
X123713Y157396D01*
X123591Y157539D01*
X123471Y157683D01*
X123460Y157691D01*
X123451Y157702D01*
X123303Y157818D01*
X123157Y157935D01*
X123145Y157941D01*
X123134Y157950D01*
X122965Y158035D01*
X122800Y158120D01*
X122787Y158124D01*
X122774Y158130D01*
X122593Y158180D01*
X122413Y158232D01*
X122399Y158233D01*
X122386Y158237D01*
X122199Y158249D01*
X122011Y158265D01*
X121998Y158263D01*
X121984Y158264D01*
X121810Y158241D01*
X113364Y158241D01*
X111902Y158847D01*
X111877Y158855D01*
X111853Y158867D01*
X111684Y158913D01*
X111517Y158963D01*
X111490Y158966D01*
X111464Y158973D01*
X111289Y158985D01*
X111116Y159002D01*
X111090Y158999D01*
X111063Y159001D01*
X110889Y158978D01*
X110716Y158960D01*
X110690Y158952D01*
X110664Y158948D01*
X110348Y158847D01*
X108886Y158241D01*
X100664Y158241D01*
X99202Y158847D01*
X99177Y158855D01*
X99153Y158867D01*
X98984Y158913D01*
X98817Y158963D01*
X98790Y158966D01*
X98764Y158973D01*
X98589Y158985D01*
X98416Y159002D01*
X98390Y158999D01*
X98363Y159001D01*
X98189Y158978D01*
X98016Y158960D01*
X97990Y158952D01*
X97964Y158948D01*
X97648Y158847D01*
X96186Y158241D01*
X87964Y158241D01*
X86471Y158860D01*
X85327Y160004D01*
X84708Y161497D01*
X84708Y183435D01*
X85327Y184928D01*
X86471Y186072D01*
X87964Y186691D01*
X96396Y186691D01*
X96469Y186685D01*
X96655Y186667D01*
X96669Y186668D01*
X96683Y186667D01*
X96869Y186689D01*
X97056Y186708D01*
X97069Y186713D01*
X97082Y186714D01*
X97261Y186772D01*
X97440Y186828D01*
X97452Y186835D01*
X97465Y186839D01*
X97629Y186932D01*
X97793Y187021D01*
X97804Y187030D01*
X97816Y187037D01*
X97958Y187160D01*
X98102Y187280D01*
X98110Y187291D01*
X98121Y187300D01*
X98236Y187448D01*
X98353Y187595D01*
X98359Y187607D01*
X98367Y187618D01*
X98450Y187785D01*
X98537Y187953D01*
X98540Y187966D01*
X98547Y187979D01*
X98595Y188160D01*
X98647Y188341D01*
X98648Y188354D01*
X98651Y188367D01*
X98678Y188698D01*
X98678Y219381D01*
X98677Y219397D01*
X98678Y219412D01*
X98670Y219477D01*
X98672Y219545D01*
X98650Y219663D01*
X98638Y219782D01*
X98632Y219802D01*
X98631Y219812D01*
X98613Y219867D01*
X98600Y219941D01*
X98555Y220052D01*
X98520Y220167D01*
X98508Y220189D01*
X98506Y220195D01*
X98481Y220240D01*
X98451Y220315D01*
X98385Y220415D01*
X98328Y220521D01*
X98309Y220544D01*
X98308Y220545D01*
X98297Y220558D01*
X98276Y220584D01*
X98231Y220653D01*
X98147Y220738D01*
X98071Y220830D01*
X98007Y220881D01*
X97949Y220940D01*
X97850Y221007D01*
X97757Y221082D01*
X97684Y221120D01*
X97616Y221166D01*
X97506Y221213D01*
X97400Y221268D01*
X97321Y221290D01*
X97245Y221322D01*
X97128Y221346D01*
X97013Y221379D01*
X96931Y221386D01*
X96850Y221402D01*
X96731Y221402D01*
X96611Y221412D01*
X96530Y221402D01*
X96448Y221402D01*
X96298Y221375D01*
X96267Y221372D01*
X96229Y221368D01*
X96226Y221367D01*
X96212Y221365D01*
X96173Y221353D01*
X96121Y221343D01*
X95711Y221233D01*
X94106Y221233D01*
X94106Y233934D01*
X94105Y233951D01*
X94106Y233969D01*
X94085Y234152D01*
X94066Y234334D01*
X94061Y234351D01*
X94059Y234369D01*
X94002Y234544D01*
X93948Y234719D01*
X93940Y234735D01*
X93934Y234752D01*
X93844Y234912D01*
X93757Y235073D01*
X93745Y235087D01*
X93736Y235102D01*
X93616Y235242D01*
X93499Y235382D01*
X93499Y235383D01*
X93498Y235383D01*
X93485Y235394D01*
X93473Y235407D01*
X93473Y235408D01*
X93328Y235520D01*
X93185Y235635D01*
X93169Y235644D01*
X93155Y235654D01*
X92990Y235736D01*
X92827Y235821D01*
X92810Y235826D01*
X92794Y235834D01*
X92616Y235882D01*
X92440Y235932D01*
X92423Y235934D01*
X92405Y235938D01*
X92075Y235965D01*
X86232Y235965D01*
X86232Y244429D01*
X86405Y245075D01*
X86740Y245654D01*
X87213Y246127D01*
X87792Y246462D01*
X88438Y246635D01*
X90522Y246635D01*
X90535Y246636D01*
X90548Y246635D01*
X90735Y246656D01*
X90922Y246675D01*
X90935Y246679D01*
X90948Y246680D01*
X91127Y246738D01*
X91307Y246793D01*
X91319Y246799D01*
X91332Y246803D01*
X91496Y246895D01*
X91661Y246985D01*
X91671Y246993D01*
X91683Y247000D01*
X91827Y247123D01*
X91970Y247242D01*
X91979Y247253D01*
X91989Y247261D01*
X92106Y247410D01*
X92223Y247556D01*
X92229Y247568D01*
X92237Y247578D01*
X92322Y247748D01*
X92408Y247913D01*
X92412Y247926D01*
X92418Y247938D01*
X92468Y248120D01*
X92520Y248300D01*
X92521Y248314D01*
X92524Y248327D01*
X92537Y248513D01*
X92553Y248702D01*
X92551Y248715D01*
X92552Y248728D01*
X92528Y248914D01*
X92506Y249101D01*
X92501Y249114D01*
X92500Y249127D01*
X92398Y249443D01*
X92328Y249612D01*
X92328Y250954D01*
X92326Y250972D01*
X92328Y250990D01*
X92307Y251172D01*
X92288Y251355D01*
X92283Y251372D01*
X92281Y251389D01*
X92224Y251564D01*
X92170Y251740D01*
X92162Y251755D01*
X92156Y251772D01*
X92066Y251932D01*
X91978Y252094D01*
X91967Y252107D01*
X91958Y252123D01*
X91838Y252262D01*
X91721Y252403D01*
X91707Y252414D01*
X91695Y252428D01*
X91550Y252540D01*
X91407Y252655D01*
X91391Y252663D01*
X91377Y252674D01*
X91212Y252756D01*
X91050Y252841D01*
X91033Y252846D01*
X91017Y252854D01*
X90838Y252901D01*
X90663Y252952D01*
X90645Y252954D01*
X90628Y252958D01*
X90297Y252985D01*
X90116Y252985D01*
X88566Y253627D01*
X88437Y253733D01*
X88422Y253741D01*
X88408Y253752D01*
X88244Y253836D01*
X88082Y253921D01*
X88065Y253927D01*
X88049Y253935D01*
X87872Y253984D01*
X87696Y254036D01*
X87678Y254038D01*
X87661Y254043D01*
X87478Y254056D01*
X87295Y254073D01*
X87277Y254071D01*
X87259Y254072D01*
X87077Y254049D01*
X86895Y254029D01*
X86878Y254024D01*
X86860Y254022D01*
X86686Y253963D01*
X86511Y253908D01*
X86495Y253899D01*
X86478Y253893D01*
X86319Y253802D01*
X86158Y253713D01*
X86145Y253701D01*
X86129Y253692D01*
X86047Y253622D01*
X84509Y252985D01*
X67891Y252985D01*
X66398Y253604D01*
X65254Y254748D01*
X64635Y256241D01*
X64635Y270859D01*
X65254Y272352D01*
X65849Y272948D01*
X65907Y273018D01*
X65972Y273082D01*
X66034Y273173D01*
X66104Y273259D01*
X66147Y273340D01*
X66198Y273415D01*
X66241Y273517D01*
X66293Y273615D01*
X66319Y273702D01*
X66354Y273786D01*
X66376Y273895D01*
X66408Y274001D01*
X66416Y274091D01*
X66434Y274181D01*
X66434Y274291D01*
X66444Y274402D01*
X66434Y274493D01*
X66435Y274583D01*
X66410Y274719D01*
X66401Y274802D01*
X66386Y274848D01*
X66375Y274910D01*
X66159Y275715D01*
X66159Y279301D01*
X74982Y279301D01*
X75000Y279302D01*
X75017Y279301D01*
X75200Y279322D01*
X75382Y279341D01*
X75399Y279346D01*
X75417Y279348D01*
X75592Y279405D01*
X75767Y279459D01*
X75783Y279467D01*
X75800Y279473D01*
X75960Y279563D01*
X76121Y279650D01*
X76135Y279662D01*
X76151Y279671D01*
X76290Y279791D01*
X76431Y279908D01*
X76442Y279922D01*
X76455Y279934D01*
X76568Y280079D01*
X76683Y280222D01*
X76691Y280238D01*
X76702Y280252D01*
X76784Y280417D01*
X76868Y280579D01*
X76873Y280596D01*
X76881Y280612D01*
X76929Y280791D01*
X76980Y280966D01*
X76981Y280984D01*
X76986Y281001D01*
X77013Y281332D01*
X77013Y281737D01*
X77418Y281737D01*
X77436Y281739D01*
X77454Y281737D01*
X77636Y281759D01*
X77819Y281777D01*
X77836Y281782D01*
X77853Y281784D01*
X78028Y281841D01*
X78204Y281895D01*
X78219Y281903D01*
X78236Y281909D01*
X78396Y281999D01*
X78558Y282087D01*
X78571Y282098D01*
X78587Y282107D01*
X78726Y282227D01*
X78867Y282345D01*
X78878Y282358D01*
X78892Y282370D01*
X79004Y282515D01*
X79119Y282658D01*
X79127Y282674D01*
X79138Y282688D01*
X79220Y282853D01*
X79305Y283016D01*
X79310Y283033D01*
X79318Y283049D01*
X79365Y283227D01*
X79416Y283402D01*
X79418Y283420D01*
X79422Y283437D01*
X79449Y283768D01*
X79449Y291591D01*
X84035Y291591D01*
X84681Y291418D01*
X85146Y291149D01*
X85288Y291085D01*
X85426Y291015D01*
X85471Y291002D01*
X85513Y290983D01*
X85664Y290948D01*
X85814Y290907D01*
X85860Y290903D01*
X85906Y290893D01*
X86060Y290889D01*
X86215Y290877D01*
X86261Y290883D01*
X86308Y290882D01*
X86461Y290908D01*
X86615Y290928D01*
X86659Y290943D01*
X86705Y290951D01*
X86849Y291007D01*
X86996Y291056D01*
X87037Y291079D01*
X87080Y291096D01*
X87211Y291180D01*
X87345Y291257D01*
X87385Y291291D01*
X87419Y291313D01*
X87482Y291373D01*
X87598Y291472D01*
X88622Y292496D01*
X90116Y293115D01*
X106734Y293115D01*
X108284Y292472D01*
X108413Y292367D01*
X108429Y292359D01*
X108443Y292348D01*
X108607Y292264D01*
X108768Y292179D01*
X108786Y292173D01*
X108802Y292165D01*
X108979Y292116D01*
X109154Y292064D01*
X109172Y292062D01*
X109189Y292057D01*
X109372Y292044D01*
X109555Y292027D01*
X109573Y292029D01*
X109591Y292028D01*
X109772Y292051D01*
X109956Y292071D01*
X109973Y292076D01*
X109990Y292078D01*
X110164Y292137D01*
X110339Y292192D01*
X110355Y292201D01*
X110372Y292207D01*
X110531Y292298D01*
X110692Y292387D01*
X110705Y292399D01*
X110721Y292408D01*
X110804Y292478D01*
X112341Y293115D01*
X128959Y293115D01*
X130452Y292496D01*
X131596Y291352D01*
X132197Y289901D01*
X132208Y289881D01*
X132215Y289860D01*
X132303Y289704D01*
X132387Y289546D01*
X132402Y289529D01*
X132413Y289509D01*
X132530Y289374D01*
X132644Y289235D01*
X132661Y289221D01*
X132676Y289204D01*
X132817Y289095D01*
X132956Y288982D01*
X132976Y288971D01*
X132994Y288958D01*
X133154Y288878D01*
X133313Y288795D01*
X133334Y288788D01*
X133354Y288778D01*
X133528Y288732D01*
X133699Y288682D01*
X133722Y288680D01*
X133743Y288674D01*
X134074Y288647D01*
X135801Y288647D01*
X135823Y288649D01*
X135846Y288647D01*
X136023Y288669D01*
X136202Y288687D01*
X136223Y288693D01*
X136245Y288696D01*
X136415Y288752D01*
X136587Y288805D01*
X136606Y288815D01*
X136627Y288822D01*
X136783Y288911D01*
X136941Y288997D01*
X136958Y289011D01*
X136977Y289022D01*
X137112Y289139D01*
X137250Y289254D01*
X137264Y289272D01*
X137281Y289286D01*
X137390Y289428D01*
X137502Y289568D01*
X137513Y289588D01*
X137526Y289606D01*
X137678Y289901D01*
X138279Y291352D01*
X139423Y292496D01*
X140916Y293115D01*
X157534Y293115D01*
X159027Y292496D01*
X160171Y291352D01*
X160772Y289901D01*
X160783Y289881D01*
X160790Y289860D01*
X160878Y289704D01*
X160962Y289546D01*
X160977Y289529D01*
X160988Y289509D01*
X161105Y289374D01*
X161219Y289235D01*
X161236Y289221D01*
X161251Y289204D01*
X161392Y289095D01*
X161531Y288982D01*
X161551Y288971D01*
X161569Y288958D01*
X161729Y288878D01*
X161888Y288795D01*
X161909Y288788D01*
X161929Y288778D01*
X162103Y288732D01*
X162274Y288682D01*
X162297Y288680D01*
X162318Y288674D01*
X162649Y288647D01*
X164725Y288647D01*
X166966Y287719D01*
X168315Y286370D01*
X168378Y286318D01*
X168435Y286259D01*
X168534Y286190D01*
X168626Y286115D01*
X168699Y286076D01*
X168766Y286029D01*
X168876Y285982D01*
X168982Y285926D01*
X169061Y285903D01*
X169136Y285870D01*
X169253Y285845D01*
X169368Y285811D01*
X169450Y285804D01*
X169530Y285787D01*
X169650Y285786D01*
X169769Y285775D01*
X169851Y285784D01*
X169933Y285783D01*
X170050Y285805D01*
X170169Y285818D01*
X170248Y285843D01*
X170328Y285859D01*
X170439Y285904D01*
X170553Y285940D01*
X170625Y285980D01*
X170701Y286011D01*
X170801Y286077D01*
X170905Y286135D01*
X170968Y286188D01*
X171036Y286233D01*
X171121Y286318D01*
X171212Y286395D01*
X171263Y286460D01*
X171321Y286518D01*
X171408Y286643D01*
X171462Y286711D01*
X171480Y286747D01*
X171510Y286790D01*
X174767Y292431D01*
X180644Y298308D01*
X181629Y298877D01*
X181685Y298917D01*
X181737Y298945D01*
X181739Y298947D01*
X181753Y298955D01*
X181852Y299037D01*
X181956Y299112D01*
X182006Y299165D01*
X182062Y299212D01*
X182143Y299312D01*
X182230Y299406D01*
X182269Y299469D01*
X182315Y299526D01*
X182374Y299640D01*
X182441Y299750D01*
X182466Y299819D01*
X182500Y299883D01*
X182536Y300007D01*
X182580Y300127D01*
X182591Y300200D01*
X182612Y300270D01*
X182622Y300398D01*
X182642Y300525D01*
X182638Y300598D01*
X182644Y300672D01*
X182629Y300799D01*
X182624Y300928D01*
X182606Y300999D01*
X182597Y301071D01*
X182558Y301194D01*
X182527Y301318D01*
X182495Y301385D01*
X182473Y301454D01*
X182409Y301566D01*
X182355Y301682D01*
X182311Y301741D01*
X182275Y301805D01*
X182191Y301902D01*
X182114Y302005D01*
X182060Y302054D01*
X182012Y302110D01*
X181910Y302188D01*
X181814Y302274D01*
X181751Y302311D01*
X181693Y302356D01*
X181578Y302414D01*
X181468Y302479D01*
X181399Y302503D01*
X181333Y302536D01*
X181209Y302569D01*
X181088Y302611D01*
X181015Y302621D01*
X180944Y302640D01*
X180775Y302654D01*
X180689Y302666D01*
X180656Y302664D01*
X180613Y302667D01*
X4064Y302667D01*
X4046Y302665D01*
X4028Y302667D01*
X3846Y302646D01*
X3663Y302627D01*
X3646Y302622D01*
X3629Y302620D01*
X3454Y302563D01*
X3278Y302509D01*
X3263Y302501D01*
X3246Y302495D01*
X3086Y302405D01*
X2924Y302317D01*
X2911Y302306D01*
X2895Y302297D01*
X2756Y302177D01*
X2615Y302060D01*
X2604Y302046D01*
X2590Y302034D01*
X2478Y301889D01*
X2363Y301746D01*
X2355Y301730D01*
X2344Y301716D01*
X2262Y301551D01*
X2177Y301389D01*
X2172Y301372D01*
X2164Y301356D01*
X2117Y301177D01*
X2066Y301002D01*
X2064Y300984D01*
X2060Y300967D01*
X2033Y300636D01*
X2033Y4064D01*
X2035Y4046D01*
X2033Y4028D01*
X2054Y3846D01*
X2073Y3663D01*
X2078Y3646D01*
X2080Y3629D01*
X2137Y3454D01*
X2191Y3278D01*
X2199Y3263D01*
X2205Y3246D01*
X2295Y3086D01*
X2383Y2924D01*
X2394Y2911D01*
X2403Y2895D01*
X2523Y2756D01*
X2640Y2615D01*
X2654Y2604D01*
X2666Y2590D01*
X2811Y2478D01*
X2954Y2363D01*
X2970Y2355D01*
X2984Y2344D01*
X3149Y2262D01*
X3311Y2177D01*
X3328Y2172D01*
X3344Y2164D01*
X3523Y2117D01*
X3698Y2066D01*
X3716Y2064D01*
X3733Y2060D01*
X4064Y2033D01*
X180787Y2033D01*
X180860Y2040D01*
G37*
%LPC*%
G36*
X37119Y158935D02*
X37119Y158935D01*
X29092Y161086D01*
X21894Y165242D01*
X16017Y171119D01*
X11861Y178317D01*
X9710Y186344D01*
X9710Y194656D01*
X11861Y202683D01*
X16017Y209881D01*
X21894Y215758D01*
X29092Y219914D01*
X37119Y222065D01*
X45431Y222065D01*
X53278Y219962D01*
X53287Y219961D01*
X53295Y219958D01*
X53485Y219928D01*
X53675Y219897D01*
X53684Y219897D01*
X53693Y219896D01*
X53885Y219904D01*
X54077Y219911D01*
X54086Y219913D01*
X54095Y219914D01*
X54282Y219960D01*
X54469Y220005D01*
X54477Y220009D01*
X54486Y220011D01*
X54660Y220093D01*
X54834Y220174D01*
X54842Y220179D01*
X54850Y220183D01*
X55004Y220298D01*
X55159Y220412D01*
X55165Y220418D01*
X55173Y220424D01*
X55301Y220566D01*
X55431Y220709D01*
X55436Y220716D01*
X55442Y220723D01*
X55540Y220889D01*
X55639Y221054D01*
X55642Y221062D01*
X55646Y221070D01*
X55710Y221252D01*
X55774Y221433D01*
X55776Y221442D01*
X55779Y221450D01*
X55804Y221637D01*
X55833Y221831D01*
X55832Y221840D01*
X55833Y221849D01*
X55821Y222040D01*
X55811Y222233D01*
X55809Y222242D01*
X55808Y222251D01*
X55759Y222437D01*
X55711Y222623D01*
X55707Y222631D01*
X55705Y222640D01*
X55563Y222940D01*
X55307Y223382D01*
X55134Y224028D01*
X55134Y229299D01*
X62612Y229299D01*
X62612Y221822D01*
X57734Y221822D01*
X57661Y221815D01*
X57588Y221817D01*
X57461Y221795D01*
X57334Y221782D01*
X57264Y221760D01*
X57191Y221748D01*
X57071Y221701D01*
X56949Y221664D01*
X56884Y221629D01*
X56816Y221602D01*
X56708Y221533D01*
X56595Y221472D01*
X56538Y221425D01*
X56477Y221386D01*
X56384Y221297D01*
X56285Y221214D01*
X56240Y221157D01*
X56187Y221106D01*
X56114Y221001D01*
X56033Y220900D01*
X55999Y220836D01*
X55958Y220775D01*
X55907Y220657D01*
X55848Y220543D01*
X55827Y220473D01*
X55798Y220405D01*
X55772Y220280D01*
X55736Y220156D01*
X55730Y220083D01*
X55715Y220012D01*
X55714Y219883D01*
X55703Y219755D01*
X55712Y219682D01*
X55711Y219609D01*
X55735Y219483D01*
X55750Y219355D01*
X55773Y219286D01*
X55787Y219213D01*
X55835Y219094D01*
X55875Y218972D01*
X55911Y218909D01*
X55939Y218841D01*
X56010Y218734D01*
X56073Y218622D01*
X56121Y218566D01*
X56161Y218505D01*
X56252Y218414D01*
X56336Y218317D01*
X56394Y218272D01*
X56446Y218220D01*
X56585Y218124D01*
X56654Y218070D01*
X56684Y218056D01*
X56719Y218031D01*
X60656Y215758D01*
X66533Y209881D01*
X70689Y202683D01*
X72840Y194656D01*
X72840Y186344D01*
X70689Y178317D01*
X66533Y171119D01*
X60656Y165242D01*
X53458Y161086D01*
X45431Y158935D01*
X37119Y158935D01*
G37*
%LPD*%
G36*
X176452Y149348D02*
X176452Y149348D01*
X176465Y149347D01*
X176651Y149371D01*
X176838Y149393D01*
X176851Y149397D01*
X176864Y149399D01*
X177180Y149500D01*
X177517Y149640D01*
X195954Y149640D01*
X195972Y149642D01*
X195990Y149640D01*
X196172Y149661D01*
X196355Y149680D01*
X196372Y149685D01*
X196389Y149687D01*
X196564Y149744D01*
X196740Y149798D01*
X196755Y149806D01*
X196772Y149812D01*
X196932Y149902D01*
X197094Y149990D01*
X197107Y150001D01*
X197123Y150010D01*
X197262Y150130D01*
X197403Y150247D01*
X197414Y150261D01*
X197428Y150273D01*
X197540Y150418D01*
X197655Y150561D01*
X197663Y150577D01*
X197674Y150591D01*
X197756Y150756D01*
X197841Y150918D01*
X197846Y150935D01*
X197854Y150951D01*
X197901Y151130D01*
X197952Y151305D01*
X197954Y151323D01*
X197958Y151340D01*
X197985Y151671D01*
X197985Y156559D01*
X198604Y158052D01*
X199199Y158648D01*
X199257Y158718D01*
X199322Y158782D01*
X199384Y158873D01*
X199454Y158959D01*
X199497Y159040D01*
X199548Y159115D01*
X199591Y159217D01*
X199643Y159315D01*
X199669Y159402D01*
X199704Y159486D01*
X199726Y159595D01*
X199758Y159701D01*
X199766Y159791D01*
X199784Y159881D01*
X199784Y159991D01*
X199794Y160102D01*
X199784Y160193D01*
X199785Y160283D01*
X199760Y160419D01*
X199751Y160502D01*
X199736Y160548D01*
X199725Y160610D01*
X199440Y161674D01*
X199435Y161688D01*
X199431Y161711D01*
X199386Y161822D01*
X199351Y161936D01*
X199317Y161999D01*
X199298Y162050D01*
X199291Y162061D01*
X199282Y162085D01*
X199216Y162185D01*
X199159Y162290D01*
X199112Y162348D01*
X199084Y162392D01*
X199077Y162399D01*
X199062Y162422D01*
X198978Y162508D01*
X198902Y162600D01*
X198841Y162648D01*
X198807Y162684D01*
X198801Y162688D01*
X198780Y162710D01*
X198681Y162777D01*
X198588Y162852D01*
X198517Y162889D01*
X198478Y162916D01*
X198473Y162918D01*
X198447Y162936D01*
X198337Y162982D01*
X198231Y163037D01*
X198152Y163060D01*
X198110Y163079D01*
X198106Y163080D01*
X198076Y163092D01*
X197959Y163116D01*
X197844Y163149D01*
X197762Y163155D01*
X197753Y163157D01*
X197717Y163165D01*
X197713Y163165D01*
X197681Y163172D01*
X197562Y163172D01*
X197442Y163182D01*
X197361Y163172D01*
X197348Y163172D01*
X197314Y163173D01*
X197311Y163172D01*
X197279Y163172D01*
X197128Y163145D01*
X197043Y163135D01*
X197004Y163122D01*
X196952Y163113D01*
X196659Y163034D01*
X190824Y163034D01*
X190824Y171107D01*
X190822Y171125D01*
X190824Y171142D01*
X190803Y171325D01*
X190784Y171507D01*
X190779Y171524D01*
X190777Y171542D01*
X190720Y171717D01*
X190666Y171892D01*
X190658Y171908D01*
X190652Y171925D01*
X190562Y172085D01*
X190474Y172246D01*
X190463Y172260D01*
X190454Y172276D01*
X190334Y172415D01*
X190217Y172556D01*
X190203Y172567D01*
X190191Y172580D01*
X190046Y172693D01*
X189903Y172808D01*
X189887Y172816D01*
X189873Y172827D01*
X189708Y172909D01*
X189546Y172993D01*
X189529Y172998D01*
X189513Y173006D01*
X189334Y173054D01*
X189159Y173105D01*
X189141Y173106D01*
X189124Y173111D01*
X188793Y173138D01*
X185857Y173138D01*
X185839Y173136D01*
X185821Y173138D01*
X185639Y173116D01*
X185456Y173098D01*
X185439Y173093D01*
X185422Y173091D01*
X185247Y173034D01*
X185071Y172980D01*
X185056Y172972D01*
X185039Y172966D01*
X184879Y172876D01*
X184717Y172788D01*
X184704Y172777D01*
X184688Y172768D01*
X184549Y172648D01*
X184408Y172530D01*
X184397Y172517D01*
X184383Y172505D01*
X184271Y172360D01*
X184156Y172217D01*
X184148Y172201D01*
X184137Y172187D01*
X184055Y172022D01*
X183970Y171859D01*
X183965Y171842D01*
X183957Y171826D01*
X183909Y171648D01*
X183859Y171473D01*
X183857Y171455D01*
X183853Y171438D01*
X183826Y171107D01*
X183826Y163034D01*
X177877Y163034D01*
X177773Y163051D01*
X177686Y163048D01*
X177600Y163055D01*
X177486Y163041D01*
X177370Y163037D01*
X177286Y163017D01*
X177200Y163006D01*
X177091Y162970D01*
X176979Y162943D01*
X176900Y162907D01*
X176818Y162880D01*
X176718Y162823D01*
X176613Y162774D01*
X176543Y162723D01*
X176468Y162680D01*
X176381Y162605D01*
X176288Y162537D01*
X176230Y162473D01*
X176165Y162416D01*
X176095Y162325D01*
X176017Y162240D01*
X175972Y162165D01*
X175919Y162097D01*
X175853Y161968D01*
X175809Y161895D01*
X175794Y161853D01*
X175768Y161801D01*
X175023Y160004D01*
X174967Y159947D01*
X174950Y159927D01*
X174929Y159909D01*
X174822Y159771D01*
X174712Y159636D01*
X174699Y159612D01*
X174683Y159591D01*
X174605Y159434D01*
X174523Y159280D01*
X174515Y159255D01*
X174503Y159230D01*
X174458Y159061D01*
X174408Y158894D01*
X174406Y158868D01*
X174399Y158842D01*
X174372Y158511D01*
X174372Y151377D01*
X174373Y151364D01*
X174372Y151350D01*
X174393Y151163D01*
X174412Y150976D01*
X174416Y150964D01*
X174417Y150950D01*
X174475Y150772D01*
X174530Y150592D01*
X174536Y150580D01*
X174540Y150567D01*
X174632Y150403D01*
X174722Y150238D01*
X174730Y150227D01*
X174737Y150216D01*
X174859Y150072D01*
X174979Y149928D01*
X174990Y149920D01*
X174998Y149910D01*
X175147Y149794D01*
X175293Y149676D01*
X175305Y149670D01*
X175315Y149662D01*
X175484Y149577D01*
X175650Y149490D01*
X175663Y149487D01*
X175675Y149481D01*
X175857Y149431D01*
X176037Y149379D01*
X176051Y149378D01*
X176064Y149374D01*
X176250Y149362D01*
X176439Y149346D01*
X176452Y149348D01*
G37*
%LPC*%
G36*
X70738Y237426D02*
X70738Y237426D01*
X70738Y244903D01*
X76010Y244903D01*
X76656Y244730D01*
X77235Y244396D01*
X77708Y243923D01*
X78043Y243343D01*
X78216Y242697D01*
X78216Y237426D01*
X70738Y237426D01*
G37*
%LPD*%
%LPC*%
G36*
X55134Y237426D02*
X55134Y237426D01*
X55134Y242697D01*
X55307Y243343D01*
X55642Y243923D01*
X56115Y244396D01*
X56694Y244730D01*
X57340Y244903D01*
X62612Y244903D01*
X62612Y237426D01*
X55134Y237426D01*
G37*
%LPD*%
%LPC*%
G36*
X70738Y221822D02*
X70738Y221822D01*
X70738Y229299D01*
X78216Y229299D01*
X78216Y224028D01*
X78043Y223382D01*
X77708Y222802D01*
X77235Y222329D01*
X76656Y221995D01*
X76010Y221822D01*
X70738Y221822D01*
G37*
%LPD*%
%LPC*%
G36*
X57774Y10784D02*
X57774Y10784D01*
X57774Y18351D01*
X64191Y18351D01*
X64191Y12990D01*
X64018Y12344D01*
X63683Y11765D01*
X63210Y11292D01*
X62631Y10957D01*
X61985Y10784D01*
X57774Y10784D01*
G37*
%LPD*%
%LPC*%
G36*
X73532Y140715D02*
X73532Y140715D01*
X73532Y149179D01*
X73705Y149825D01*
X74040Y150404D01*
X74513Y150877D01*
X75092Y151212D01*
X75738Y151385D01*
X77344Y151385D01*
X77344Y140715D01*
X73532Y140715D01*
G37*
%LPD*%
%LPC*%
G36*
X88438Y221233D02*
X88438Y221233D01*
X87792Y221406D01*
X87213Y221741D01*
X86740Y222214D01*
X86405Y222793D01*
X86232Y223439D01*
X86232Y231903D01*
X90044Y231903D01*
X90044Y221233D01*
X88438Y221233D01*
G37*
%LPD*%
%LPC*%
G36*
X66159Y285799D02*
X66159Y285799D01*
X66159Y289385D01*
X66332Y290031D01*
X66667Y290610D01*
X67140Y291083D01*
X67719Y291418D01*
X68365Y291591D01*
X72951Y291591D01*
X72951Y285799D01*
X66159Y285799D01*
G37*
%LPD*%
%LPC*%
G36*
X66674Y233362D02*
X66674Y233362D01*
X66674Y233363D01*
X66676Y233363D01*
X66676Y233362D01*
X66674Y233362D01*
G37*
%LPD*%
D10*
X333375Y152400D03*
D11*
X209550Y209525D03*
X209550Y190525D03*
D12*
X206350Y231775D03*
X187350Y231775D03*
D11*
X76200Y282550D03*
X76200Y263550D03*
X209550Y168250D03*
X209550Y149250D03*
D13*
X187325Y138575D03*
X187325Y172575D03*
D14*
X155575Y138684D03*
X155575Y77216D03*
X142875Y138684D03*
X130175Y138684D03*
X142875Y77216D03*
X130175Y77216D03*
X117475Y138684D03*
X117475Y77216D03*
X104775Y138684D03*
X92075Y138684D03*
X104775Y77216D03*
X92075Y77216D03*
X79375Y138684D03*
X79375Y77216D03*
X168275Y233934D03*
X168275Y172466D03*
X155575Y233934D03*
X142875Y233934D03*
X155575Y172466D03*
X142875Y172466D03*
X130175Y233934D03*
X130175Y172466D03*
X117475Y233934D03*
X104775Y233934D03*
X117475Y172466D03*
X104775Y172466D03*
X92075Y233934D03*
X92075Y172466D03*
D15*
X31750Y47625D03*
X31750Y28575D03*
D16*
X53900Y47625D03*
X53900Y22225D03*
X123900Y22225D03*
X123900Y47625D03*
D11*
X187325Y190525D03*
X187325Y209525D03*
X149225Y282550D03*
X149225Y263550D03*
X120650Y282550D03*
X120650Y263550D03*
X98425Y282550D03*
X98425Y263550D03*
X209550Y130150D03*
X209550Y111150D03*
X209550Y92050D03*
X209550Y73050D03*
X187325Y73050D03*
X187325Y92050D03*
D17*
X187325Y114300D03*
D18*
X142875Y47625D03*
X142875Y22225D03*
X66675Y233363D03*
D12*
X38125Y69850D03*
X57125Y69850D03*
D18*
X295275Y209550D03*
D19*
X209550Y190525D02*
X187325Y190525D01*
X120650Y282550D02*
X98425Y282550D01*
X120650Y282550D02*
X134938Y282550D01*
X134938Y263525D01*
X146050Y263525D01*
X149225Y263550D01*
X146050Y263525D02*
X155575Y250825D01*
X155575Y233934D01*
X130175Y250825D02*
X120650Y263550D01*
X130175Y250825D02*
X142875Y250825D01*
X142875Y233934D01*
X142875Y215900D01*
X171450Y215900D01*
X171475Y215875D01*
X187325Y209525D01*
X163513Y282550D02*
X149225Y282550D01*
X168275Y250825D02*
X168275Y233934D01*
X168275Y250825D02*
X163513Y255588D01*
X163513Y282550D01*
X168275Y231775D02*
X187350Y231775D01*
X168275Y231750D02*
X168275Y231775D01*
X168275Y233934D01*
X117475Y250825D02*
X98425Y250825D01*
X117475Y250825D02*
X117475Y233934D01*
X98425Y250825D02*
X98425Y263550D01*
X76200Y263525D02*
X76200Y263550D01*
X98425Y263550D01*
X130175Y233934D02*
X130175Y212725D01*
X155575Y187325D01*
X155575Y172466D01*
X155575Y155575D01*
X142875Y155575D01*
X142875Y138684D01*
X104775Y190500D02*
X104775Y233934D01*
X104775Y190500D02*
X130175Y190500D01*
X130175Y172466D01*
X130175Y138684D01*
X104775Y172466D02*
X104775Y190500D01*
X209550Y111150D02*
X209550Y92050D01*
X209550Y73050D02*
X187325Y73050D01*
X117475Y77216D02*
X104775Y77216D01*
X117475Y77216D02*
X130175Y77216D01*
X142875Y77216D01*
X155575Y77216D01*
X117475Y77216D02*
X117475Y138684D01*
X155575Y111125D02*
X155575Y77216D01*
X168275Y139700D02*
X168275Y172466D01*
X168275Y138684D02*
X168275Y111125D01*
X155575Y111125D01*
X209550Y130150D02*
X209550Y149250D01*
X201125Y138575D02*
X209550Y130150D01*
X201125Y138575D02*
X187325Y138575D01*
X186200Y139700D01*
X168275Y139700D01*
X168275Y138684D01*
X155575Y138684D01*
X187325Y114300D02*
X187325Y92050D01*
X142875Y22225D02*
X123900Y22225D01*
X209550Y209525D02*
X209550Y209550D01*
D20*
X295275Y209550D01*
D19*
X92075Y138684D02*
X92075Y95250D01*
X73025Y95250D01*
X57150Y79375D01*
X57125Y69850D01*
X92075Y190525D02*
X92075Y233934D01*
X92075Y190525D02*
X82550Y190500D01*
X79375Y190500D01*
X79375Y138684D01*
D21*
X44450Y285750D03*
X219075Y231775D03*
X219075Y168275D03*
D19*
X187325Y168250D02*
X187325Y172575D01*
X187325Y168250D02*
X209550Y168250D01*
X53900Y47625D02*
X31750Y47625D01*
X123900Y47625D02*
X142875Y47625D01*
D22*
X41275Y190500D03*
X41275Y114300D03*
X200025Y31750D03*
X200025Y273050D03*
D19*
X38125Y69850D02*
X15875Y69850D01*
X15875Y28575D01*
X31750Y28575D01*
M02*
