%FSLAX23Y23*%
%MOIN*%
G04 EasyPC Gerber Version 18.0.1 Build 3581 *
%ADD129R,0.02360X0.08660*%
%ADD130R,0.04500X0.05000*%
%ADD127R,0.05500X0.06000*%
%ADD132R,0.07000X0.11000*%
%ADD74R,0.06000X0.06000*%
%ADD72C,0.01575*%
%ADD100C,0.02500*%
%ADD135C,0.02953*%
%ADD136C,0.05118*%
%ADD134C,0.06496*%
%ADD81C,0.06500*%
%ADD128C,0.15000*%
%ADD131R,0.04800X0.04000*%
%ADD133R,0.05000X0.04500*%
%ADD75R,0.05512X0.04528*%
%ADD126R,0.06000X0.05500*%
X0Y0D02*
D02*
D72*
X769Y770D02*
Y833D01*
X813Y877*
Y983*
X788Y1008*
X738*
X838Y528D02*
Y633D01*
X788Y683*
X713*
X688Y708*
Y858*
X738Y908*
X856Y810D02*
X863D01*
Y1070*
X825Y1108*
X738*
X900Y438D02*
X988D01*
X900Y528D02*
X838D01*
X918Y608D02*
X913D01*
Y670*
X845Y738*
Y730*
X856*
X933Y845D02*
Y738D01*
X1013Y658*
Y608*
X1008*
X938Y1078D02*
Y1175D01*
Y1453D02*
X1138D01*
Y1450*
X988Y528D02*
X1075D01*
X993Y770D02*
X1025D01*
X1050Y795*
X1150*
X1188Y833*
Y910*
X993Y845D02*
Y933D01*
X938Y988*
X993Y845D02*
X1125D01*
X1138Y858*
Y910*
X1075Y438D02*
X1083D01*
X1113Y408*
X1208*
X1233Y433*
Y520*
X1245Y533*
X1377*
Y495*
X1088Y910D02*
Y945D01*
X1025Y1008*
Y1270*
X1088Y1285D02*
Y1270D01*
X1025*
X1138Y1285D02*
Y1233D01*
X1238Y1133*
Y1020*
X1288Y970*
Y910*
X1188Y1285D02*
Y1358D01*
X1138Y1408*
Y1450*
X1213D02*
Y1445D01*
X1288Y1370*
Y1285*
X1213Y1540D02*
X1255D01*
X1275Y1520*
Y1463*
X1288Y1450*
X1338*
X1213Y1540D02*
X1138D01*
X1238Y910D02*
Y845D01*
X1263Y820*
X1388*
X1238Y1285D02*
Y1208D01*
X1288Y1158*
X1325*
X1338Y1145*
Y910*
X1288Y465D02*
Y395D01*
X1250Y358*
X863*
X838Y383*
Y528*
X1288Y1285D02*
Y1233D01*
X1313Y1208*
X1495*
X1500Y1203*
X1338Y1285D02*
Y1450D01*
Y1540D02*
X1350D01*
Y1533*
X1358Y1540*
X1463*
X1383Y608D02*
Y501D01*
X1377Y495*
X1388Y705D02*
Y613D01*
X1383Y608*
X1388Y705D02*
Y820D01*
Y910*
Y1080D02*
Y910D01*
Y1285D02*
Y1540D01*
X1338*
X1500Y925D02*
X1650D01*
Y870*
X1688*
Y875*
X1500Y1113D02*
Y1015D01*
D02*
D74*
X738Y908D03*
D02*
D75*
X938Y988D03*
Y1078D03*
D02*
D81*
X738Y1008D03*
Y1108D03*
D02*
D100*
X2250Y1308D02*
Y683D01*
X1625*
Y1308*
X2250*
G36*
Y683*
X1625*
Y1308*
X2250*
G37*
D02*
D126*
X918Y608D03*
X1008D03*
X1293D03*
X1383D03*
D02*
D127*
X900Y438D03*
Y528D03*
X938Y1175D03*
Y1265D03*
Y1363D03*
Y1453D03*
X988Y438D03*
Y528D03*
X1075Y438D03*
Y528D03*
X1138Y1450D03*
Y1540D03*
X1213Y1450D03*
Y1540D03*
X1338Y1450D03*
Y1540D03*
X1463Y1450D03*
Y1540D03*
X1500Y925D03*
Y1015D03*
Y1113D03*
Y1203D03*
D02*
D128*
X676Y483D03*
Y1508D03*
X1700Y483D03*
Y1508D03*
D02*
D129*
X1088Y705D03*
Y910D03*
Y1080D03*
Y1285D03*
X1138Y705D03*
Y910D03*
Y1080D03*
Y1285D03*
X1188Y705D03*
Y910D03*
Y1080D03*
Y1285D03*
X1238Y705D03*
Y910D03*
Y1080D03*
Y1285D03*
X1288Y705D03*
Y910D03*
Y1080D03*
Y1285D03*
X1338Y705D03*
Y910D03*
Y1080D03*
Y1285D03*
X1388Y705D03*
Y910D03*
Y1080D03*
Y1285D03*
D02*
D130*
X933Y770D03*
Y845D03*
X993Y770D03*
Y845D03*
D02*
D131*
X769Y770D03*
X856Y730D03*
Y810D03*
D02*
D132*
X1173Y495D03*
X1377D03*
D02*
D133*
X1288Y465D03*
Y525D03*
D02*
D134*
X1025Y1270D03*
X1188Y608D03*
D02*
D135*
X738Y1108D02*
Y1220D01*
X788Y1270*
X930*
X935Y1265*
X938*
X1025Y1270D02*
X938D01*
Y1265*
D02*
D136*
Y1363D02*
Y1265D01*
X0Y0D02*
M02*
